{
  "header": {
    "PPQ": 256,
    "timeSignature": [
      4,
      4
    ],
    "bpm": 65.00013541694878,
    "name": ""
  },
  "startTime": 0,
  "duration": 161.53812499999933,
  "tracks": [
    {
      "startTime": 0,
      "duration": 0,
      "length": 0,
      "notes": [],
      "controlChanges": {},
      "id": 0
    },
    {
      "startTime": 0,
      "duration": 161.53812499999933,
      "length": 800,
      "notes": [
        {
          "name": "A5",
          "midi": 81,
          "time": 0,
          "velocity": 0.5511811023622047,
          "duration": 0.46153750000000004
        },
        {
          "name": "F#3",
          "midi": 54,
          "time": 0,
          "velocity": 0.5669291338582677,
          "duration": 0.46153750000000004
        },
        {
          "name": "G#5",
          "midi": 80,
          "time": 0.46153750000000004,
          "velocity": 0.5590551181102362,
          "duration": 0.46153750000000004
        },
        {
          "name": "C#4",
          "midi": 61,
          "time": 0.46153750000000004,
          "velocity": 0.6929133858267716,
          "duration": 0.46153750000000004
        },
        {
          "name": "A5",
          "midi": 81,
          "time": 0.9230750000000001,
          "velocity": 0.6220472440944882,
          "duration": 0.46153750000000016
        },
        {
          "name": "F#4",
          "midi": 66,
          "time": 0.9230750000000001,
          "velocity": 0.7086614173228346,
          "duration": 0.9230750000000001
        },
        {
          "name": "G#5",
          "midi": 80,
          "time": 1.3846125000000002,
          "velocity": 0.5354330708661418,
          "duration": 0.46153749999999993
        },
        {
          "name": "A5",
          "midi": 81,
          "time": 1.8461500000000002,
          "velocity": 0.5905511811023622,
          "duration": 0.46153749999999993
        },
        {
          "name": "D3",
          "midi": 50,
          "time": 1.8461500000000002,
          "velocity": 0.5118110236220472,
          "duration": 0.46153749999999993
        },
        {
          "name": "E5",
          "midi": 76,
          "time": 2.3076875,
          "velocity": 0.5354330708661418,
          "duration": 0.46153749999999993
        },
        {
          "name": "A3",
          "midi": 57,
          "time": 2.3076875,
          "velocity": 0.6456692913385826,
          "duration": 0.46153749999999993
        },
        {
          "name": "A5",
          "midi": 81,
          "time": 2.769225,
          "velocity": 0.6692913385826772,
          "duration": 0.46153749999999993
        },
        {
          "name": "E4",
          "midi": 64,
          "time": 2.769225,
          "velocity": 0.7165354330708661,
          "duration": 3.692300000000001
        },
        {
          "name": "D5",
          "midi": 74,
          "time": 3.2307625,
          "velocity": 0.5118110236220472,
          "duration": 2.7692250000000005
        },
        {
          "name": "A4",
          "midi": 69,
          "time": 5.9999875000000005,
          "velocity": 0.5196850393700787,
          "duration": 0.2307687500000002
        },
        {
          "name": "C#5",
          "midi": 73,
          "time": 6.230756250000001,
          "velocity": 0.6220472440944882,
          "duration": 0.2307687500000002
        },
        {
          "name": "A5",
          "midi": 81,
          "time": 6.461525000000001,
          "velocity": 0.7244094488188977,
          "duration": 0.4615375000000004
        },
        {
          "name": "F#3",
          "midi": 54,
          "time": 6.461525000000001,
          "velocity": 0.5118110236220472,
          "duration": 0.4615375000000004
        },
        {
          "name": "G#5",
          "midi": 80,
          "time": 6.923062500000001,
          "velocity": 0.6220472440944882,
          "duration": 0.4615375000000004
        },
        {
          "name": "C#4",
          "midi": 61,
          "time": 6.923062500000001,
          "velocity": 0.7165354330708661,
          "duration": 0.4615375000000004
        },
        {
          "name": "A5",
          "midi": 81,
          "time": 7.384600000000002,
          "velocity": 0.6062992125984252,
          "duration": 0.4615375000000004
        },
        {
          "name": "F#4",
          "midi": 66,
          "time": 7.384600000000002,
          "velocity": 0.6771653543307087,
          "duration": 0.9230749999999999
        },
        {
          "name": "G#5",
          "midi": 80,
          "time": 7.846137500000002,
          "velocity": 0.5748031496062992,
          "duration": 0.4615374999999995
        },
        {
          "name": "A5",
          "midi": 81,
          "time": 8.307675000000001,
          "velocity": 0.6377952755905512,
          "duration": 0.4615375000000004
        },
        {
          "name": "D3",
          "midi": 50,
          "time": 8.307675000000001,
          "velocity": 0.5590551181102362,
          "duration": 0.4615375000000004
        },
        {
          "name": "E5",
          "midi": 76,
          "time": 8.769212500000002,
          "velocity": 0.5039370078740157,
          "duration": 0.4615375000000004
        },
        {
          "name": "A3",
          "midi": 57,
          "time": 8.769212500000002,
          "velocity": 0.6692913385826772,
          "duration": 0.4615375000000004
        },
        {
          "name": "A5",
          "midi": 81,
          "time": 9.230750000000002,
          "velocity": 0.6771653543307087,
          "duration": 0.4615375000000004
        },
        {
          "name": "E4",
          "midi": 64,
          "time": 9.230750000000002,
          "velocity": 0.7086614173228346,
          "duration": 3.6922999999999995
        },
        {
          "name": "D5",
          "midi": 74,
          "time": 9.692287500000003,
          "velocity": 0.48031496062992124,
          "duration": 2.7692250000000005
        },
        {
          "name": "A4",
          "midi": 69,
          "time": 12.461512500000003,
          "velocity": 0.5354330708661418,
          "duration": 0.2307687499999993
        },
        {
          "name": "C#5",
          "midi": 73,
          "time": 12.692281250000002,
          "velocity": 0.6456692913385826,
          "duration": 0.2307687499999993
        },
        {
          "name": "A5",
          "midi": 81,
          "time": 12.923050000000002,
          "velocity": 0.7322834645669292,
          "duration": 0.4615375000000004
        },
        {
          "name": "F#3",
          "midi": 54,
          "time": 12.923050000000002,
          "velocity": 0.5354330708661418,
          "duration": 0.4615375000000004
        },
        {
          "name": "G#5",
          "midi": 80,
          "time": 13.384587500000002,
          "velocity": 0.6062992125984252,
          "duration": 0.2307687499999993
        },
        {
          "name": "C#4",
          "midi": 61,
          "time": 13.384587500000002,
          "velocity": 0.6850393700787402,
          "duration": 0.4615374999999986
        },
        {
          "name": "A5",
          "midi": 81,
          "time": 13.615356250000001,
          "velocity": 0.6692913385826772,
          "duration": 0.4615374999999986
        },
        {
          "name": "F#4",
          "midi": 66,
          "time": 13.846125,
          "velocity": 0.6850393700787402,
          "duration": 0.9230749999999972
        },
        {
          "name": "A4",
          "midi": 69,
          "time": 14.07689375,
          "velocity": 0.4566929133858268,
          "duration": 0.2307687499999993
        },
        {
          "name": "G#5",
          "midi": 80,
          "time": 14.3076625,
          "velocity": 0.6929133858267716,
          "duration": 0.2307687499999993
        },
        {
          "name": "A5",
          "midi": 81,
          "time": 14.538431249999999,
          "velocity": 0.6771653543307087,
          "duration": 0.4615374999999986
        },
        {
          "name": "D3",
          "midi": 50,
          "time": 14.769199999999998,
          "velocity": 0.5196850393700787,
          "duration": 0.4615374999999986
        },
        {
          "name": "A4",
          "midi": 69,
          "time": 14.999968749999997,
          "velocity": 0.4409448818897638,
          "duration": 0.2307687499999993
        },
        {
          "name": "E5",
          "midi": 76,
          "time": 15.230737499999996,
          "velocity": 0.7007874015748031,
          "duration": 0.2307687499999993
        },
        {
          "name": "A3",
          "midi": 57,
          "time": 15.230737499999996,
          "velocity": 0.6535433070866141,
          "duration": 0.4615374999999986
        },
        {
          "name": "A5",
          "midi": 81,
          "time": 15.461506249999996,
          "velocity": 0.7007874015748031,
          "duration": 0.4615374999999986
        },
        {
          "name": "E4",
          "midi": 64,
          "time": 15.692274999999995,
          "velocity": 0.7322834645669292,
          "duration": 0.4615374999999986
        },
        {
          "name": "A4",
          "midi": 69,
          "time": 15.923043749999994,
          "velocity": 0.4566929133858268,
          "duration": 0.2307687499999993
        },
        {
          "name": "D5",
          "midi": 74,
          "time": 16.153812499999994,
          "velocity": 0.6535433070866141,
          "duration": 0.2307687499999993
        },
        {
          "name": "D3",
          "midi": 50,
          "time": 16.153812499999994,
          "velocity": 0.5905511811023622,
          "duration": 0.4615374999999986
        },
        {
          "name": "A4",
          "midi": 69,
          "time": 16.384581249999993,
          "velocity": 0.5590551181102362,
          "duration": 0.2307687499999993
        },
        {
          "name": "C#5",
          "midi": 73,
          "time": 16.615349999999992,
          "velocity": 0.6456692913385826,
          "duration": 0.4615374999999986
        },
        {
          "name": "A2",
          "midi": 45,
          "time": 16.615349999999992,
          "velocity": 0.5354330708661418,
          "duration": 0.4615374999999986
        },
        {
          "name": "D5",
          "midi": 74,
          "time": 17.07688749999999,
          "velocity": 0.6377952755905512,
          "duration": 0.4615374999999986
        },
        {
          "name": "E3",
          "midi": 52,
          "time": 17.07688749999999,
          "velocity": 0.6692913385826772,
          "duration": 0.4615374999999986
        },
        {
          "name": "A4",
          "midi": 69,
          "time": 17.53842499999999,
          "velocity": 0.6535433070866141,
          "duration": 0.4615374999999986
        },
        {
          "name": "E5",
          "midi": 76,
          "time": 17.53842499999999,
          "velocity": 0.6535433070866141,
          "duration": 0.4615374999999986
        },
        {
          "name": "C#4",
          "midi": 61,
          "time": 17.53842499999999,
          "velocity": 0.7559055118110236,
          "duration": 0.9230749999999972
        },
        {
          "name": "C#5",
          "midi": 73,
          "time": 17.999962499999988,
          "velocity": 0.5511811023622047,
          "duration": 0.4615374999999986
        },
        {
          "name": "G#4",
          "midi": 68,
          "time": 18.461499999999987,
          "velocity": 0.6062992125984252,
          "duration": 1.3846124999999958
        },
        {
          "name": "B4",
          "midi": 71,
          "time": 18.461499999999987,
          "velocity": 0.6062992125984252,
          "duration": 1.3846124999999958
        },
        {
          "name": "G#3",
          "midi": 56,
          "time": 18.461499999999987,
          "velocity": 0.5826771653543307,
          "duration": 0.4615374999999986
        },
        {
          "name": "B3",
          "midi": 59,
          "time": 18.923037499999985,
          "velocity": 0.6456692913385826,
          "duration": 0.4615374999999986
        },
        {
          "name": "E4",
          "midi": 64,
          "time": 19.384574999999984,
          "velocity": 0.6614173228346457,
          "duration": 0.9230749999999972
        },
        {
          "name": "A4",
          "midi": 69,
          "time": 19.846112499999983,
          "velocity": 0.5039370078740157,
          "duration": 0.2307687499999993
        },
        {
          "name": "G#4",
          "midi": 68,
          "time": 20.076881249999982,
          "velocity": 0.5669291338582677,
          "duration": 0.2307687499999993
        },
        {
          "name": "A4",
          "midi": 69,
          "time": 20.30764999999998,
          "velocity": 0.6220472440944882,
          "duration": 1.1538437499999965
        },
        {
          "name": "F#3",
          "midi": 54,
          "time": 20.30764999999998,
          "velocity": 0.5748031496062992,
          "duration": 0.4615374999999986
        },
        {
          "name": "C#4",
          "midi": 61,
          "time": 20.76918749999998,
          "velocity": 0.7086614173228346,
          "duration": 0.4615374999999986
        },
        {
          "name": "F#4",
          "midi": 66,
          "time": 21.23072499999998,
          "velocity": 0.6929133858267716,
          "duration": 0.9230749999999972
        },
        {
          "name": "E4",
          "midi": 64,
          "time": 21.461493749999978,
          "velocity": 0.5511811023622047,
          "duration": 0.2307687499999993
        },
        {
          "name": "A4",
          "midi": 69,
          "time": 21.692262499999977,
          "velocity": 0.6929133858267716,
          "duration": 0.2307687499999993
        },
        {
          "name": "B4",
          "midi": 71,
          "time": 21.923031249999976,
          "velocity": 0.6614173228346457,
          "duration": 0.2307687499999993
        },
        {
          "name": "C#5",
          "midi": 73,
          "time": 22.153799999999976,
          "velocity": 0.6614173228346457,
          "duration": 1.3846124999999958
        },
        {
          "name": "D3",
          "midi": 50,
          "time": 22.153799999999976,
          "velocity": 0.5748031496062992,
          "duration": 0.4615374999999986
        },
        {
          "name": "A3",
          "midi": 57,
          "time": 22.615337499999974,
          "velocity": 0.6535433070866141,
          "duration": 0.4615374999999986
        },
        {
          "name": "E4",
          "midi": 64,
          "time": 23.076874999999973,
          "velocity": 0.7007874015748031,
          "duration": 0.9230749999999972
        },
        {
          "name": "C#5",
          "midi": 73,
          "time": 23.53841249999997,
          "velocity": 0.6062992125984252,
          "duration": 0.2307687499999993
        },
        {
          "name": "D5",
          "midi": 74,
          "time": 23.76918124999997,
          "velocity": 0.6377952755905512,
          "duration": 0.2307687499999993
        },
        {
          "name": "E5",
          "midi": 76,
          "time": 23.99994999999997,
          "velocity": 0.6535433070866141,
          "duration": 1.3846124999999958
        },
        {
          "name": "A2",
          "midi": 45,
          "time": 23.99994999999997,
          "velocity": 0.5196850393700787,
          "duration": 0.4615374999999986
        },
        {
          "name": "E3",
          "midi": 52,
          "time": 24.46148749999997,
          "velocity": 0.6614173228346457,
          "duration": 0.4615374999999986
        },
        {
          "name": "C#4",
          "midi": 61,
          "time": 24.923024999999967,
          "velocity": 0.7401574803149606,
          "duration": 0.9230749999999972
        },
        {
          "name": "D5",
          "midi": 74,
          "time": 25.384562499999966,
          "velocity": 0.5433070866141733,
          "duration": 0.2307687499999993
        },
        {
          "name": "C#5",
          "midi": 73,
          "time": 25.615331249999965,
          "velocity": 0.5669291338582677,
          "duration": 0.2307687499999993
        },
        {
          "name": "B4",
          "midi": 71,
          "time": 25.846099999999964,
          "velocity": 0.4881889763779528,
          "duration": 1.846149999999998
        },
        {
          "name": "E3",
          "midi": 52,
          "time": 25.846099999999964,
          "velocity": 0.5433070866141733,
          "duration": 0.4615374999999986
        },
        {
          "name": "B3",
          "midi": 59,
          "time": 26.307637499999963,
          "velocity": 0.6456692913385826,
          "duration": 0.4615374999999986
        },
        {
          "name": "G#4",
          "midi": 68,
          "time": 26.76917499999996,
          "velocity": 0.7480314960629921,
          "duration": 0.9230750000000008
        },
        {
          "name": "A5",
          "midi": 81,
          "time": 27.692249999999962,
          "velocity": 0.7165354330708661,
          "duration": 0.4615374999999986
        },
        {
          "name": "F#3",
          "midi": 54,
          "time": 27.692249999999962,
          "velocity": 0.5354330708661418,
          "duration": 0.4615374999999986
        },
        {
          "name": "G#5",
          "midi": 80,
          "time": 28.15378749999996,
          "velocity": 0.5984251968503937,
          "duration": 0.2307687499999993
        },
        {
          "name": "C#4",
          "midi": 61,
          "time": 28.15378749999996,
          "velocity": 0.7322834645669292,
          "duration": 0.4615374999999986
        },
        {
          "name": "A5",
          "midi": 81,
          "time": 28.38455624999996,
          "velocity": 0.6220472440944882,
          "duration": 0.4615374999999986
        },
        {
          "name": "F#4",
          "midi": 66,
          "time": 28.61532499999996,
          "velocity": 0.6850393700787402,
          "duration": 0.9230749999999972
        },
        {
          "name": "A4",
          "midi": 69,
          "time": 28.84609374999996,
          "velocity": 0.47244094488188976,
          "duration": 0.2307687499999993
        },
        {
          "name": "G#5",
          "midi": 80,
          "time": 29.076862499999958,
          "velocity": 0.7244094488188977,
          "duration": 0.2307687499999993
        },
        {
          "name": "A5",
          "midi": 81,
          "time": 29.307631249999957,
          "velocity": 0.6299212598425197,
          "duration": 0.4615374999999986
        },
        {
          "name": "D3",
          "midi": 50,
          "time": 29.538399999999957,
          "velocity": 0.5118110236220472,
          "duration": 0.4615374999999986
        },
        {
          "name": "A4",
          "midi": 69,
          "time": 29.769168749999956,
          "velocity": 0.44881889763779526,
          "duration": 0.2307687499999993
        },
        {
          "name": "E5",
          "midi": 76,
          "time": 29.999937499999955,
          "velocity": 0.7007874015748031,
          "duration": 0.2307687499999993
        },
        {
          "name": "A3",
          "midi": 57,
          "time": 29.999937499999955,
          "velocity": 0.6062992125984252,
          "duration": 0.4615374999999986
        },
        {
          "name": "A5",
          "midi": 81,
          "time": 30.230706249999955,
          "velocity": 0.6771653543307087,
          "duration": 0.4615374999999986
        },
        {
          "name": "E4",
          "midi": 64,
          "time": 30.461474999999954,
          "velocity": 0.7559055118110236,
          "duration": 0.4615374999999986
        },
        {
          "name": "A4",
          "midi": 69,
          "time": 30.692243749999953,
          "velocity": 0.4251968503937008,
          "duration": 0.2307687499999993
        },
        {
          "name": "D5",
          "midi": 74,
          "time": 30.923012499999952,
          "velocity": 0.6771653543307087,
          "duration": 0.2307687499999993
        },
        {
          "name": "D3",
          "midi": 50,
          "time": 30.923012499999952,
          "velocity": 0.5669291338582677,
          "duration": 0.4615374999999986
        },
        {
          "name": "A4",
          "midi": 69,
          "time": 31.153781249999952,
          "velocity": 0.5196850393700787,
          "duration": 0.2307687499999993
        },
        {
          "name": "C#5",
          "midi": 73,
          "time": 31.38454999999995,
          "velocity": 0.6692913385826772,
          "duration": 0.4615374999999986
        },
        {
          "name": "A2",
          "midi": 45,
          "time": 31.38454999999995,
          "velocity": 0.5590551181102362,
          "duration": 0.4615374999999986
        },
        {
          "name": "D5",
          "midi": 74,
          "time": 31.84608749999995,
          "velocity": 0.6220472440944882,
          "duration": 0.46153750000000215
        },
        {
          "name": "E3",
          "midi": 52,
          "time": 31.84608749999995,
          "velocity": 0.6220472440944882,
          "duration": 0.46153750000000215
        },
        {
          "name": "E5",
          "midi": 76,
          "time": 32.30762499999995,
          "velocity": 0.6220472440944882,
          "duration": 0.4615374999999986
        },
        {
          "name": "C#4",
          "midi": 61,
          "time": 32.30762499999995,
          "velocity": 0.7480314960629921,
          "duration": 0.4615374999999986
        },
        {
          "name": "C#6",
          "midi": 85,
          "time": 32.76916249999995,
          "velocity": 0.7480314960629921,
          "duration": 0.4615374999999986
        },
        {
          "name": "A2",
          "midi": 45,
          "time": 32.76916249999995,
          "velocity": 0.5433070866141733,
          "duration": 0.4615374999999986
        },
        {
          "name": "B5",
          "midi": 83,
          "time": 33.23069999999995,
          "velocity": 0.5669291338582677,
          "duration": 0.4615374999999986
        },
        {
          "name": "E3",
          "midi": 52,
          "time": 33.23069999999995,
          "velocity": 0.6377952755905512,
          "duration": 0.4615374999999986
        },
        {
          "name": "E5",
          "midi": 76,
          "time": 33.69223749999995,
          "velocity": 0.47244094488188976,
          "duration": 0.4615374999999986
        },
        {
          "name": "B3",
          "midi": 59,
          "time": 33.69223749999995,
          "velocity": 0.6614173228346457,
          "duration": 0.4615374999999986
        },
        {
          "name": "B5",
          "midi": 83,
          "time": 34.153774999999946,
          "velocity": 0.7007874015748031,
          "duration": 0.4615374999999986
        },
        {
          "name": "C#4",
          "midi": 61,
          "time": 34.153774999999946,
          "velocity": 0.6614173228346457,
          "duration": 0.9230750000000043
        },
        {
          "name": "A5",
          "midi": 81,
          "time": 34.615312499999945,
          "velocity": 0.5984251968503937,
          "duration": 0.23076875000000285
        },
        {
          "name": "G#5",
          "midi": 80,
          "time": 34.84608124999995,
          "velocity": 0.5511811023622047,
          "duration": 0.23076875000000285
        },
        {
          "name": "E5",
          "midi": 76,
          "time": 35.07684999999995,
          "velocity": 0.6614173228346457,
          "duration": 1.3846124999999958
        },
        {
          "name": "A5",
          "midi": 81,
          "time": 35.07684999999995,
          "velocity": 0.6614173228346457,
          "duration": 1.3846124999999958
        },
        {
          "name": "F#3",
          "midi": 54,
          "time": 35.07684999999995,
          "velocity": 0.5905511811023622,
          "duration": 0.4615374999999986
        },
        {
          "name": "C#4",
          "midi": 61,
          "time": 35.53838749999995,
          "velocity": 0.7165354330708661,
          "duration": 0.4615374999999986
        },
        {
          "name": "F#4",
          "midi": 66,
          "time": 35.99992499999995,
          "velocity": 0.7165354330708661,
          "duration": 0.9230750000000043
        },
        {
          "name": "A4",
          "midi": 69,
          "time": 36.461462499999946,
          "velocity": 0.4094488188976378,
          "duration": 0.23076875000000285
        },
        {
          "name": "B4",
          "midi": 71,
          "time": 36.69223124999995,
          "velocity": 0.5984251968503937,
          "duration": 0.23076875000000285
        },
        {
          "name": "C#5",
          "midi": 73,
          "time": 36.92299999999995,
          "velocity": 0.6299212598425197,
          "duration": 0.4615374999999986
        },
        {
          "name": "D3",
          "midi": 50,
          "time": 36.92299999999995,
          "velocity": 0.5275590551181102,
          "duration": 0.4615374999999986
        },
        {
          "name": "E4",
          "midi": 64,
          "time": 37.38453749999995,
          "velocity": 0.4330708661417323,
          "duration": 0.4615374999999986
        },
        {
          "name": "A3",
          "midi": 57,
          "time": 37.38453749999995,
          "velocity": 0.6220472440944882,
          "duration": 0.4615374999999986
        },
        {
          "name": "A4",
          "midi": 69,
          "time": 37.84607499999995,
          "velocity": 0.6456692913385826,
          "duration": 0.4615374999999986
        },
        {
          "name": "E4",
          "midi": 64,
          "time": 37.84607499999995,
          "velocity": 0.7244094488188977,
          "duration": 0.9230750000000043
        },
        {
          "name": "C#5",
          "midi": 73,
          "time": 38.30761249999995,
          "velocity": 0.6771653543307087,
          "duration": 0.23076875000000285
        },
        {
          "name": "D5",
          "midi": 74,
          "time": 38.53838124999995,
          "velocity": 0.6535433070866141,
          "duration": 0.23076875000000285
        },
        {
          "name": "E5",
          "midi": 76,
          "time": 38.769149999999954,
          "velocity": 0.6299212598425197,
          "duration": 0.4615374999999986
        },
        {
          "name": "A2",
          "midi": 45,
          "time": 38.769149999999954,
          "velocity": 0.5511811023622047,
          "duration": 0.4615374999999986
        },
        {
          "name": "E4",
          "midi": 64,
          "time": 39.23068749999995,
          "velocity": 0.4566929133858268,
          "duration": 0.4615374999999986
        },
        {
          "name": "E3",
          "midi": 52,
          "time": 39.23068749999995,
          "velocity": 0.6535433070866141,
          "duration": 0.4615374999999986
        },
        {
          "name": "C#5",
          "midi": 73,
          "time": 39.69222499999995,
          "velocity": 0.7007874015748031,
          "duration": 0.4615374999999986
        },
        {
          "name": "C#4",
          "midi": 61,
          "time": 39.69222499999995,
          "velocity": 0.7322834645669292,
          "duration": 0.9230750000000043
        },
        {
          "name": "D5",
          "midi": 74,
          "time": 40.15376249999995,
          "velocity": 0.6771653543307087,
          "duration": 0.23076875000000285
        },
        {
          "name": "C#5",
          "midi": 73,
          "time": 40.38453124999995,
          "velocity": 0.6062992125984252,
          "duration": 0.23076875000000285
        },
        {
          "name": "B4",
          "midi": 71,
          "time": 40.615299999999955,
          "velocity": 0.5826771653543307,
          "duration": 0.9230749999999972
        },
        {
          "name": "E3",
          "midi": 52,
          "time": 40.615299999999955,
          "velocity": 0.5511811023622047,
          "duration": 0.4615374999999986
        },
        {
          "name": "B3",
          "midi": 59,
          "time": 41.076837499999954,
          "velocity": 0.6299212598425197,
          "duration": 0.4615374999999986
        },
        {
          "name": "A5",
          "midi": 81,
          "time": 41.53837499999995,
          "velocity": 0.7480314960629921,
          "duration": 0.23076875000000285
        },
        {
          "name": "E4",
          "midi": 64,
          "time": 41.53837499999995,
          "velocity": 0.7086614173228346,
          "duration": 0.9230750000000114
        },
        {
          "name": "B5",
          "midi": 83,
          "time": 41.769143749999955,
          "velocity": 0.6535433070866141,
          "duration": 0.23076875000000285
        },
        {
          "name": "A5",
          "midi": 81,
          "time": 41.99991249999996,
          "velocity": 0.5590551181102362,
          "duration": 0.23076875000000285
        },
        {
          "name": "G#5",
          "midi": 80,
          "time": 42.23068124999996,
          "velocity": 0.5984251968503937,
          "duration": 0.23076875000000285
        },
        {
          "name": "A5",
          "midi": 81,
          "time": 42.461449999999964,
          "velocity": 0.5905511811023622,
          "duration": 0.23076875000000285
        },
        {
          "name": "F#3",
          "midi": 54,
          "time": 42.461449999999964,
          "velocity": 0.5826771653543307,
          "duration": 0.4615375000000057
        },
        {
          "name": "A4",
          "midi": 69,
          "time": 42.69221874999997,
          "velocity": 0.4409448818897638,
          "duration": 0.23076875000000285
        },
        {
          "name": "E5",
          "midi": 76,
          "time": 42.92298749999997,
          "velocity": 0.6771653543307087,
          "duration": 0.23076875000000285
        },
        {
          "name": "C#4",
          "midi": 61,
          "time": 42.92298749999997,
          "velocity": 0.7007874015748031,
          "duration": 0.4615375000000057
        },
        {
          "name": "A4",
          "midi": 69,
          "time": 43.15375624999997,
          "velocity": 0.5039370078740157,
          "duration": 0.23076875000000285
        },
        {
          "name": "A5",
          "midi": 81,
          "time": 43.384524999999975,
          "velocity": 0.7637795275590551,
          "duration": 0.23076875000000285
        },
        {
          "name": "F#4",
          "midi": 66,
          "time": 43.384524999999975,
          "velocity": 0.6929133858267716,
          "duration": 0.4615375000000057
        },
        {
          "name": "B5",
          "midi": 83,
          "time": 43.61529374999998,
          "velocity": 0.6929133858267716,
          "duration": 0.23076875000000285
        },
        {
          "name": "A5",
          "midi": 81,
          "time": 43.84606249999998,
          "velocity": 0.5590551181102362,
          "duration": 0.23076875000000285
        },
        {
          "name": "F#3",
          "midi": 54,
          "time": 43.84606249999998,
          "velocity": 0.5118110236220472,
          "duration": 0.4615375000000057
        },
        {
          "name": "G#5",
          "midi": 80,
          "time": 44.076831249999984,
          "velocity": 0.5511811023622047,
          "duration": 0.23076875000000285
        },
        {
          "name": "A5",
          "midi": 81,
          "time": 44.30759999999999,
          "velocity": 0.6456692913385826,
          "duration": 0.23076875000000285
        },
        {
          "name": "D3",
          "midi": 50,
          "time": 44.30759999999999,
          "velocity": 0.5433070866141733,
          "duration": 0.4615375000000057
        },
        {
          "name": "A4",
          "midi": 69,
          "time": 44.53836874999999,
          "velocity": 0.4409448818897638,
          "duration": 0.23076875000000285
        },
        {
          "name": "E5",
          "midi": 76,
          "time": 44.76913749999999,
          "velocity": 0.7007874015748031,
          "duration": 0.23076875000000285
        },
        {
          "name": "A3",
          "midi": 57,
          "time": 44.76913749999999,
          "velocity": 0.5984251968503937,
          "duration": 0.4615375000000057
        },
        {
          "name": "A4",
          "midi": 69,
          "time": 44.999906249999995,
          "velocity": 0.5039370078740157,
          "duration": 0.23076875000000285
        },
        {
          "name": "A5",
          "midi": 81,
          "time": 45.230675,
          "velocity": 0.7637795275590551,
          "duration": 0.23076875000000285
        },
        {
          "name": "E4",
          "midi": 64,
          "time": 45.230675,
          "velocity": 0.7480314960629921,
          "duration": 0.4615375000000057
        },
        {
          "name": "B5",
          "midi": 83,
          "time": 45.46144375,
          "velocity": 0.6929133858267716,
          "duration": 0.23076875000000285
        },
        {
          "name": "A5",
          "midi": 81,
          "time": 45.692212500000004,
          "velocity": 0.5905511811023622,
          "duration": 0.23076875000000285
        },
        {
          "name": "D3",
          "midi": 50,
          "time": 45.692212500000004,
          "velocity": 0.5354330708661418,
          "duration": 0.4615375000000057
        },
        {
          "name": "G#5",
          "midi": 80,
          "time": 45.92298125000001,
          "velocity": 0.5984251968503937,
          "duration": 0.23076875000000285
        },
        {
          "name": "A5",
          "midi": 81,
          "time": 46.15375000000001,
          "velocity": 0.6299212598425197,
          "duration": 0.23076875000000285
        },
        {
          "name": "A2",
          "midi": 45,
          "time": 46.15375000000001,
          "velocity": 0.5669291338582677,
          "duration": 0.4615375000000057
        },
        {
          "name": "B5",
          "midi": 83,
          "time": 46.38451875000001,
          "velocity": 0.6456692913385826,
          "duration": 0.23076875000000285
        },
        {
          "name": "C#6",
          "midi": 85,
          "time": 46.615287500000015,
          "velocity": 0.6141732283464567,
          "duration": 0.23076875000000285
        },
        {
          "name": "E3",
          "midi": 52,
          "time": 46.615287500000015,
          "velocity": 0.6850393700787402,
          "duration": 0.4615375000000057
        },
        {
          "name": "D6",
          "midi": 86,
          "time": 46.84605625000002,
          "velocity": 0.5984251968503937,
          "duration": 0.23076875000000285
        },
        {
          "name": "E6",
          "midi": 88,
          "time": 47.07682500000002,
          "velocity": 0.6299212598425197,
          "duration": 0.23076875000000285
        },
        {
          "name": "C#4",
          "midi": 61,
          "time": 47.07682500000002,
          "velocity": 0.7401574803149606,
          "duration": 0.4615375000000057
        },
        {
          "name": "C#6",
          "midi": 85,
          "time": 47.307593750000024,
          "velocity": 0.5669291338582677,
          "duration": 0.23076875000000285
        },
        {
          "name": "B5",
          "midi": 83,
          "time": 47.53836250000003,
          "velocity": 0.5275590551181102,
          "duration": 0.23076875000000285
        },
        {
          "name": "A2",
          "midi": 45,
          "time": 47.53836250000003,
          "velocity": 0.5905511811023622,
          "duration": 0.4615375000000057
        },
        {
          "name": "A5",
          "midi": 81,
          "time": 47.76913125000003,
          "velocity": 0.5905511811023622,
          "duration": 0.23076875000000285
        },
        {
          "name": "G#5",
          "midi": 80,
          "time": 47.99990000000003,
          "velocity": 0.5511811023622047,
          "duration": 0.4615374999999986
        },
        {
          "name": "E3",
          "midi": 52,
          "time": 47.99990000000003,
          "velocity": 0.6456692913385826,
          "duration": 0.4615374999999986
        },
        {
          "name": "B4",
          "midi": 71,
          "time": 48.46143750000003,
          "velocity": 0.4566929133858268,
          "duration": 0.4615374999999986
        },
        {
          "name": "B3",
          "midi": 59,
          "time": 48.46143750000003,
          "velocity": 0.6692913385826772,
          "duration": 0.4615374999999986
        },
        {
          "name": "A5",
          "midi": 81,
          "time": 48.92297500000003,
          "velocity": 0.7480314960629921,
          "duration": 0.23076875000000285
        },
        {
          "name": "E4",
          "midi": 64,
          "time": 48.92297500000003,
          "velocity": 0.6929133858267716,
          "duration": 0.4615375000000057
        },
        {
          "name": "B5",
          "midi": 83,
          "time": 49.15374375000003,
          "velocity": 0.6771653543307087,
          "duration": 0.23076875000000285
        },
        {
          "name": "A5",
          "midi": 81,
          "time": 49.384512500000035,
          "velocity": 0.5748031496062992,
          "duration": 0.23076875000000285
        },
        {
          "name": "E3",
          "midi": 52,
          "time": 49.384512500000035,
          "velocity": 0.5511811023622047,
          "duration": 0.4615375000000057
        },
        {
          "name": "G#5",
          "midi": 80,
          "time": 49.61528125000004,
          "velocity": 0.6062992125984252,
          "duration": 0.23076875000000285
        },
        {
          "name": "A5",
          "midi": 81,
          "time": 49.84605000000004,
          "velocity": 0.5905511811023622,
          "duration": 0.23076875000000285
        },
        {
          "name": "F#3",
          "midi": 54,
          "time": 49.84605000000004,
          "velocity": 0.6220472440944882,
          "duration": 0.4615375000000057
        },
        {
          "name": "A4",
          "midi": 69,
          "time": 50.076818750000044,
          "velocity": 0.4409448818897638,
          "duration": 0.23076875000000285
        },
        {
          "name": "E5",
          "midi": 76,
          "time": 50.30758750000005,
          "velocity": 0.6929133858267716,
          "duration": 0.23076875000000285
        },
        {
          "name": "C#4",
          "midi": 61,
          "time": 50.30758750000005,
          "velocity": 0.7086614173228346,
          "duration": 0.4615375000000057
        },
        {
          "name": "A4",
          "midi": 69,
          "time": 50.53835625000005,
          "velocity": 0.5039370078740157,
          "duration": 0.23076875000000285
        },
        {
          "name": "A5",
          "midi": 81,
          "time": 50.76912500000005,
          "velocity": 0.7480314960629921,
          "duration": 0.23076875000000285
        },
        {
          "name": "F#4",
          "midi": 66,
          "time": 50.76912500000005,
          "velocity": 0.6929133858267716,
          "duration": 0.4615375000000057
        },
        {
          "name": "B5",
          "midi": 83,
          "time": 50.999893750000055,
          "velocity": 0.6614173228346457,
          "duration": 0.23076875000000285
        },
        {
          "name": "A5",
          "midi": 81,
          "time": 51.23066250000006,
          "velocity": 0.5826771653543307,
          "duration": 0.23076875000000285
        },
        {
          "name": "F#3",
          "midi": 54,
          "time": 51.23066250000006,
          "velocity": 0.5354330708661418,
          "duration": 0.4615375000000057
        },
        {
          "name": "G#5",
          "midi": 80,
          "time": 51.46143125000006,
          "velocity": 0.5669291338582677,
          "duration": 0.23076875000000285
        },
        {
          "name": "A5",
          "midi": 81,
          "time": 51.692200000000064,
          "velocity": 0.6377952755905512,
          "duration": 0.23076875000000285
        },
        {
          "name": "D3",
          "midi": 50,
          "time": 51.692200000000064,
          "velocity": 0.5275590551181102,
          "duration": 0.4615375000000057
        },
        {
          "name": "A4",
          "midi": 69,
          "time": 51.92296875000007,
          "velocity": 0.4094488188976378,
          "duration": 0.23076875000000285
        },
        {
          "name": "E5",
          "midi": 76,
          "time": 52.15373750000007,
          "velocity": 0.7086614173228346,
          "duration": 0.23076875000000285
        },
        {
          "name": "A3",
          "midi": 57,
          "time": 52.15373750000007,
          "velocity": 0.6535433070866141,
          "duration": 0.4615375000000057
        },
        {
          "name": "A4",
          "midi": 69,
          "time": 52.38450625000007,
          "velocity": 0.5196850393700787,
          "duration": 0.23076875000000285
        },
        {
          "name": "A5",
          "midi": 81,
          "time": 52.615275000000075,
          "velocity": 0.7559055118110236,
          "duration": 0.23076875000000285
        },
        {
          "name": "E4",
          "midi": 64,
          "time": 52.615275000000075,
          "velocity": 0.7322834645669292,
          "duration": 0.4615375000000057
        },
        {
          "name": "B5",
          "midi": 83,
          "time": 52.84604375000008,
          "velocity": 0.6771653543307087,
          "duration": 0.23076875000000285
        },
        {
          "name": "A5",
          "midi": 81,
          "time": 53.07681250000008,
          "velocity": 0.5826771653543307,
          "duration": 0.23076875000000285
        },
        {
          "name": "D3",
          "midi": 50,
          "time": 53.07681250000008,
          "velocity": 0.5511811023622047,
          "duration": 0.4615375000000057
        },
        {
          "name": "G#5",
          "midi": 80,
          "time": 53.307581250000084,
          "velocity": 0.5433070866141733,
          "duration": 0.23076875000000285
        },
        {
          "name": "A5",
          "midi": 81,
          "time": 53.53835000000009,
          "velocity": 0.6377952755905512,
          "duration": 0.23076875000000285
        },
        {
          "name": "A2",
          "midi": 45,
          "time": 53.53835000000009,
          "velocity": 0.5590551181102362,
          "duration": 0.4615375000000057
        },
        {
          "name": "B5",
          "midi": 83,
          "time": 53.76911875000009,
          "velocity": 0.6377952755905512,
          "duration": 0.23076875000000285
        },
        {
          "name": "C#6",
          "midi": 85,
          "time": 53.99988750000009,
          "velocity": 0.6377952755905512,
          "duration": 0.23076875000000285
        },
        {
          "name": "E3",
          "midi": 52,
          "time": 53.99988750000009,
          "velocity": 0.6692913385826772,
          "duration": 0.4615375000000057
        },
        {
          "name": "D6",
          "midi": 86,
          "time": 54.230656250000095,
          "velocity": 0.6377952755905512,
          "duration": 0.23076875000000285
        },
        {
          "name": "E6",
          "midi": 88,
          "time": 54.4614250000001,
          "velocity": 0.6850393700787402,
          "duration": 0.23076875000000285
        },
        {
          "name": "C#4",
          "midi": 61,
          "time": 54.4614250000001,
          "velocity": 0.7401574803149606,
          "duration": 0.4615375000000057
        },
        {
          "name": "C#6",
          "midi": 85,
          "time": 54.6921937500001,
          "velocity": 0.5590551181102362,
          "duration": 0.23076875000000285
        },
        {
          "name": "B5",
          "midi": 83,
          "time": 54.922962500000104,
          "velocity": 0.5354330708661418,
          "duration": 0.23076875000000285
        },
        {
          "name": "A2",
          "midi": 45,
          "time": 54.922962500000104,
          "velocity": 0.5196850393700787,
          "duration": 0.4615375000000057
        },
        {
          "name": "A5",
          "midi": 81,
          "time": 55.15373125000011,
          "velocity": 0.5669291338582677,
          "duration": 0.23076875000000285
        },
        {
          "name": "G#5",
          "midi": 80,
          "time": 55.38450000000011,
          "velocity": 0.5669291338582677,
          "duration": 0.4615374999999986
        },
        {
          "name": "E3",
          "midi": 52,
          "time": 55.38450000000011,
          "velocity": 0.6535433070866141,
          "duration": 0.4615374999999986
        },
        {
          "name": "B4",
          "midi": 71,
          "time": 55.84603750000011,
          "velocity": 0.4330708661417323,
          "duration": 0.4615374999999986
        },
        {
          "name": "B3",
          "midi": 59,
          "time": 55.84603750000011,
          "velocity": 0.6692913385826772,
          "duration": 0.4615374999999986
        },
        {
          "name": "A5",
          "midi": 81,
          "time": 56.30757500000011,
          "velocity": 0.7401574803149606,
          "duration": 0.23076875000000285
        },
        {
          "name": "E4",
          "midi": 64,
          "time": 56.30757500000011,
          "velocity": 0.6850393700787402,
          "duration": 0.4615374999999986
        },
        {
          "name": "A5",
          "midi": 81,
          "time": 56.53834375000011,
          "velocity": 0.6535433070866141,
          "duration": 0.11538437499999787
        },
        {
          "name": "B5",
          "midi": 83,
          "time": 56.65372812500011,
          "velocity": 0.6220472440944882,
          "duration": 0.23076874999999575
        },
        {
          "name": "E3",
          "midi": 52,
          "time": 56.769112500000105,
          "velocity": 0.5590551181102362,
          "duration": 0.4615374999999986
        },
        {
          "name": "A5",
          "midi": 81,
          "time": 56.8844968750001,
          "velocity": 0.5826771653543307,
          "duration": 0.23076875000000285
        },
        {
          "name": "G#5",
          "midi": 80,
          "time": 57.115265625000106,
          "velocity": 0.5905511811023622,
          "duration": 0.11538437499999787
        },
        {
          "name": "A5",
          "midi": 81,
          "time": 57.230650000000104,
          "velocity": 0.6377952755905512,
          "duration": 0.23076875000000285
        },
        {
          "name": "F#2",
          "midi": 42,
          "time": 57.230650000000104,
          "velocity": 0.5275590551181102,
          "duration": 0.4615375000000057
        },
        {
          "name": "A4",
          "midi": 69,
          "time": 57.46141875000011,
          "velocity": 0.4094488188976378,
          "duration": 0.23076875000000285
        },
        {
          "name": "E5",
          "midi": 76,
          "time": 57.69218750000011,
          "velocity": 0.7165354330708661,
          "duration": 0.23076875000000285
        },
        {
          "name": "C#3",
          "midi": 49,
          "time": 57.69218750000011,
          "velocity": 0.6456692913385826,
          "duration": 0.4615375000000057
        },
        {
          "name": "A4",
          "midi": 69,
          "time": 57.92295625000011,
          "velocity": 0.5196850393700787,
          "duration": 0.23076875000000285
        },
        {
          "name": "A5",
          "midi": 81,
          "time": 58.153725000000115,
          "velocity": 0.7244094488188977,
          "duration": 0.3461531250000007
        },
        {
          "name": "F#3",
          "midi": 54,
          "time": 58.153725000000115,
          "velocity": 0.6377952755905512,
          "duration": 0.4615374999999986
        },
        {
          "name": "B5",
          "midi": 83,
          "time": 58.499878125000116,
          "velocity": 0.6299212598425197,
          "duration": 0.11538437499999787
        },
        {
          "name": "A5",
          "midi": 81,
          "time": 58.615262500000114,
          "velocity": 0.5984251968503937,
          "duration": 0.23076875000000285
        },
        {
          "name": "F#2",
          "midi": 42,
          "time": 58.615262500000114,
          "velocity": 0.5354330708661418,
          "duration": 0.4615375000000057
        },
        {
          "name": "G#5",
          "midi": 80,
          "time": 58.84603125000012,
          "velocity": 0.5826771653543307,
          "duration": 0.23076875000000285
        },
        {
          "name": "A5",
          "midi": 81,
          "time": 59.07680000000012,
          "velocity": 0.6220472440944882,
          "duration": 0.23076875000000285
        },
        {
          "name": "D3",
          "midi": 50,
          "time": 59.07680000000012,
          "velocity": 0.6614173228346457,
          "duration": 0.4615375000000057
        },
        {
          "name": "A4",
          "midi": 69,
          "time": 59.30756875000012,
          "velocity": 0.4330708661417323,
          "duration": 0.23076875000000285
        },
        {
          "name": "E5",
          "midi": 76,
          "time": 59.538337500000125,
          "velocity": 0.6850393700787402,
          "duration": 0.23076875000000285
        },
        {
          "name": "A3",
          "midi": 57,
          "time": 59.538337500000125,
          "velocity": 0.6456692913385826,
          "duration": 0.4615375000000057
        },
        {
          "name": "A4",
          "midi": 69,
          "time": 59.76910625000013,
          "velocity": 0.49606299212598426,
          "duration": 0.23076875000000285
        },
        {
          "name": "A5",
          "midi": 81,
          "time": 59.99987500000013,
          "velocity": 0.7716535433070866,
          "duration": 0.3461531250000007
        },
        {
          "name": "E4",
          "midi": 64,
          "time": 59.99987500000013,
          "velocity": 0.7244094488188977,
          "duration": 0.4615374999999986
        },
        {
          "name": "B5",
          "midi": 83,
          "time": 60.34602812500013,
          "velocity": 0.6456692913385826,
          "duration": 0.11538437499999787
        },
        {
          "name": "A5",
          "midi": 81,
          "time": 60.46141250000013,
          "velocity": 0.5748031496062992,
          "duration": 0.23076875000000285
        },
        {
          "name": "D3",
          "midi": 50,
          "time": 60.46141250000013,
          "velocity": 0.5590551181102362,
          "duration": 0.4615375000000057
        },
        {
          "name": "G#5",
          "midi": 80,
          "time": 60.69218125000013,
          "velocity": 0.5511811023622047,
          "duration": 0.23076875000000285
        },
        {
          "name": "A5",
          "midi": 81,
          "time": 60.922950000000135,
          "velocity": 0.6141732283464567,
          "duration": 0.23076875000000285
        },
        {
          "name": "A2",
          "midi": 45,
          "time": 60.922950000000135,
          "velocity": 0.5590551181102362,
          "duration": 0.4615375000000057
        },
        {
          "name": "B5",
          "midi": 83,
          "time": 61.15371875000014,
          "velocity": 0.6220472440944882,
          "duration": 0.23076875000000285
        },
        {
          "name": "C#6",
          "midi": 85,
          "time": 61.38448750000014,
          "velocity": 0.6220472440944882,
          "duration": 0.23076875000000285
        },
        {
          "name": "E3",
          "midi": 52,
          "time": 61.38448750000014,
          "velocity": 0.6299212598425197,
          "duration": 0.4615375000000057
        },
        {
          "name": "D6",
          "midi": 86,
          "time": 61.615256250000144,
          "velocity": 0.6377952755905512,
          "duration": 0.23076875000000285
        },
        {
          "name": "E6",
          "midi": 88,
          "time": 61.84602500000015,
          "velocity": 0.6299212598425197,
          "duration": 0.23076875000000285
        },
        {
          "name": "C#4",
          "midi": 61,
          "time": 61.84602500000015,
          "velocity": 0.7165354330708661,
          "duration": 0.4615375000000057
        },
        {
          "name": "C#6",
          "midi": 85,
          "time": 62.07679375000015,
          "velocity": 0.5196850393700787,
          "duration": 0.23076875000000285
        },
        {
          "name": "B5",
          "midi": 83,
          "time": 62.30756250000015,
          "velocity": 0.5511811023622047,
          "duration": 0.23076875000000285
        },
        {
          "name": "A2",
          "midi": 45,
          "time": 62.30756250000015,
          "velocity": 0.5196850393700787,
          "duration": 0.4615375000000057
        },
        {
          "name": "A5",
          "midi": 81,
          "time": 62.538331250000155,
          "velocity": 0.5590551181102362,
          "duration": 0.23076875000000285
        },
        {
          "name": "G#5",
          "midi": 80,
          "time": 62.76910000000016,
          "velocity": 0.5590551181102362,
          "duration": 0.4615374999999986
        },
        {
          "name": "F#2",
          "midi": 42,
          "time": 62.76910000000016,
          "velocity": 0.5748031496062992,
          "duration": 0.4615374999999986
        },
        {
          "name": "B4",
          "midi": 71,
          "time": 63.23063750000016,
          "velocity": 0.48031496062992124,
          "duration": 0.4615374999999986
        },
        {
          "name": "B2",
          "midi": 47,
          "time": 63.23063750000016,
          "velocity": 0.6535433070866141,
          "duration": 0.4615374999999986
        },
        {
          "name": "A5",
          "midi": 81,
          "time": 63.692175000000155,
          "velocity": 0.7401574803149606,
          "duration": 0.3461531249999936
        },
        {
          "name": "G#3",
          "midi": 56,
          "time": 63.692175000000155,
          "velocity": 0.6535433070866141,
          "duration": 0.4615374999999986
        },
        {
          "name": "B5",
          "midi": 83,
          "time": 64.03832812500015,
          "velocity": 0.6614173228346457,
          "duration": 0.11538437500000498
        },
        {
          "name": "A5",
          "midi": 81,
          "time": 64.15371250000015,
          "velocity": 0.5590551181102362,
          "duration": 0.23076874999999575
        },
        {
          "name": "F#2",
          "midi": 42,
          "time": 64.15371250000015,
          "velocity": 0.5354330708661418,
          "duration": 0.4615374999999915
        },
        {
          "name": "G#5",
          "midi": 80,
          "time": 64.38448125000015,
          "velocity": 0.5433070866141733,
          "duration": 0.23076874999999575
        },
        {
          "name": "A5",
          "midi": 81,
          "time": 64.61525000000015,
          "velocity": 0.6062992125984252,
          "duration": 0.23076874999999575
        },
        {
          "name": "F#2",
          "midi": 42,
          "time": 64.61525000000015,
          "velocity": 0.5826771653543307,
          "duration": 0.4615374999999915
        },
        {
          "name": "A4",
          "midi": 69,
          "time": 64.84601875000014,
          "velocity": 0.48031496062992124,
          "duration": 0.23076874999999575
        },
        {
          "name": "F#5",
          "midi": 78,
          "time": 65.07678750000014,
          "velocity": 0.6929133858267716,
          "duration": 0.23076874999999575
        },
        {
          "name": "C#3",
          "midi": 49,
          "time": 65.07678750000014,
          "velocity": 0.6929133858267716,
          "duration": 0.4615374999999915
        },
        {
          "name": "A4",
          "midi": 69,
          "time": 65.30755625000013,
          "velocity": 0.5039370078740157,
          "duration": 0.23076874999999575
        },
        {
          "name": "A5",
          "midi": 81,
          "time": 65.53832500000013,
          "velocity": 0.7401574803149606,
          "duration": 0.3461531250000007
        },
        {
          "name": "F#3",
          "midi": 54,
          "time": 65.53832500000013,
          "velocity": 0.6456692913385826,
          "duration": 0.4615375000000057
        },
        {
          "name": "B5",
          "midi": 83,
          "time": 65.88447812500013,
          "velocity": 0.6535433070866141,
          "duration": 0.11538437500000498
        },
        {
          "name": "A5",
          "midi": 81,
          "time": 65.99986250000013,
          "velocity": 0.6141732283464567,
          "duration": 0.23076874999999575
        },
        {
          "name": "F#2",
          "midi": 42,
          "time": 65.99986250000013,
          "velocity": 0.5039370078740157,
          "duration": 0.4615374999999915
        },
        {
          "name": "G#5",
          "midi": 80,
          "time": 66.23063125000013,
          "velocity": 0.5511811023622047,
          "duration": 0.23076874999999575
        },
        {
          "name": "A5",
          "midi": 81,
          "time": 66.46140000000013,
          "velocity": 0.6299212598425197,
          "duration": 0.23076874999999575
        },
        {
          "name": "D3",
          "midi": 50,
          "time": 66.46140000000013,
          "velocity": 0.6141732283464567,
          "duration": 0.4615374999999915
        },
        {
          "name": "A4",
          "midi": 69,
          "time": 66.69216875000012,
          "velocity": 0.41732283464566927,
          "duration": 0.23076874999999575
        },
        {
          "name": "E5",
          "midi": 76,
          "time": 66.92293750000012,
          "velocity": 0.7007874015748031,
          "duration": 0.23076874999999575
        },
        {
          "name": "A3",
          "midi": 57,
          "time": 66.92293750000012,
          "velocity": 0.6377952755905512,
          "duration": 0.4615374999999915
        },
        {
          "name": "A4",
          "midi": 69,
          "time": 67.15370625000011,
          "velocity": 0.5275590551181102,
          "duration": 0.23076874999999575
        },
        {
          "name": "A5",
          "midi": 81,
          "time": 67.38447500000011,
          "velocity": 0.7480314960629921,
          "duration": 0.23076874999999575
        },
        {
          "name": "E4",
          "midi": 64,
          "time": 67.38447500000011,
          "velocity": 0.6850393700787402,
          "duration": 0.4615374999999915
        },
        {
          "name": "B5",
          "midi": 83,
          "time": 67.6152437500001,
          "velocity": 0.6456692913385826,
          "duration": 0.23076874999999575
        },
        {
          "name": "A5",
          "midi": 81,
          "time": 67.8460125000001,
          "velocity": 0.5590551181102362,
          "duration": 0.23076874999999575
        },
        {
          "name": "D3",
          "midi": 50,
          "time": 67.8460125000001,
          "velocity": 0.5354330708661418,
          "duration": 0.4615374999999915
        },
        {
          "name": "G#5",
          "midi": 80,
          "time": 68.0767812500001,
          "velocity": 0.5669291338582677,
          "duration": 0.23076874999999575
        },
        {
          "name": "A5",
          "midi": 81,
          "time": 68.30755000000009,
          "velocity": 0.6299212598425197,
          "duration": 0.23076874999999575
        },
        {
          "name": "A2",
          "midi": 45,
          "time": 68.30755000000009,
          "velocity": 0.5748031496062992,
          "duration": 0.4615374999999915
        },
        {
          "name": "B5",
          "midi": 83,
          "time": 68.53831875000009,
          "velocity": 0.6377952755905512,
          "duration": 0.23076874999999575
        },
        {
          "name": "C#6",
          "midi": 85,
          "time": 68.76908750000008,
          "velocity": 0.6614173228346457,
          "duration": 0.23076874999999575
        },
        {
          "name": "E3",
          "midi": 52,
          "time": 68.76908750000008,
          "velocity": 0.6456692913385826,
          "duration": 0.4615374999999915
        },
        {
          "name": "D6",
          "midi": 86,
          "time": 68.99985625000008,
          "velocity": 0.6220472440944882,
          "duration": 0.23076874999999575
        },
        {
          "name": "E6",
          "midi": 88,
          "time": 69.23062500000007,
          "velocity": 0.6535433070866141,
          "duration": 0.23076874999999575
        },
        {
          "name": "B3",
          "midi": 59,
          "time": 69.23062500000007,
          "velocity": 0.6535433070866141,
          "duration": 0.4615374999999915
        },
        {
          "name": "C#6",
          "midi": 85,
          "time": 69.46139375000007,
          "velocity": 0.5433070866141733,
          "duration": 0.23076874999999575
        },
        {
          "name": "B5",
          "midi": 83,
          "time": 69.69216250000007,
          "velocity": 0.5748031496062992,
          "duration": 0.23076874999999575
        },
        {
          "name": "A2",
          "midi": 45,
          "time": 69.69216250000007,
          "velocity": 0.5039370078740157,
          "duration": 0.4615374999999915
        },
        {
          "name": "A5",
          "midi": 81,
          "time": 69.92293125000006,
          "velocity": 0.6062992125984252,
          "duration": 0.23076874999999575
        },
        {
          "name": "G#5",
          "midi": 80,
          "time": 70.15370000000006,
          "velocity": 0.5590551181102362,
          "duration": 0.4615375000000057
        },
        {
          "name": "F#2",
          "midi": 42,
          "time": 70.15370000000006,
          "velocity": 0.5354330708661418,
          "duration": 0.4615375000000057
        },
        {
          "name": "B4",
          "midi": 71,
          "time": 70.61523750000006,
          "velocity": 0.47244094488188976,
          "duration": 0.4615375000000057
        },
        {
          "name": "B2",
          "midi": 47,
          "time": 70.61523750000006,
          "velocity": 0.6377952755905512,
          "duration": 0.4615375000000057
        },
        {
          "name": "G#4",
          "midi": 68,
          "time": 71.07677500000007,
          "velocity": 0.5118110236220472,
          "duration": 0.4615375000000057
        },
        {
          "name": "G#3",
          "midi": 56,
          "time": 71.07677500000007,
          "velocity": 0.6929133858267716,
          "duration": 1.8461499999999944
        },
        {
          "name": "E4",
          "midi": 64,
          "time": 71.53831250000007,
          "velocity": 0.5275590551181102,
          "duration": 0.9230749999999972
        },
        {
          "name": "A4",
          "midi": 69,
          "time": 72.46138750000007,
          "velocity": 0.6850393700787402,
          "duration": 0.23076874999999575
        },
        {
          "name": "C#5",
          "midi": 73,
          "time": 72.69215625000007,
          "velocity": 0.6771653543307087,
          "duration": 0.23076874999999575
        },
        {
          "name": "A5",
          "midi": 81,
          "time": 72.92292500000006,
          "velocity": 0.7637795275590551,
          "duration": 0.4615375000000057
        },
        {
          "name": "F#3",
          "midi": 54,
          "time": 72.92292500000006,
          "velocity": 0.5984251968503937,
          "duration": 0.4615375000000057
        },
        {
          "name": "G#5",
          "midi": 80,
          "time": 73.38446250000007,
          "velocity": 0.5905511811023622,
          "duration": 0.23076874999999575
        },
        {
          "name": "C#4",
          "midi": 61,
          "time": 73.38446250000007,
          "velocity": 0.7165354330708661,
          "duration": 0.4615374999999915
        },
        {
          "name": "A5",
          "midi": 81,
          "time": 73.61523125000006,
          "velocity": 0.7086614173228346,
          "duration": 0.23076874999999575
        },
        {
          "name": "A5",
          "midi": 81,
          "time": 73.84600000000006,
          "velocity": 0.6456692913385826,
          "duration": 0.23076874999999575
        },
        {
          "name": "F#4",
          "midi": 66,
          "time": 73.84600000000006,
          "velocity": 0.6850393700787402,
          "duration": 0.923074999999983
        },
        {
          "name": "A4",
          "midi": 69,
          "time": 74.07676875000006,
          "velocity": 0.4566929133858268,
          "duration": 0.23076874999999575
        },
        {
          "name": "G#5",
          "midi": 80,
          "time": 74.30753750000005,
          "velocity": 0.7244094488188977,
          "duration": 0.23076874999999575
        },
        {
          "name": "A5",
          "midi": 81,
          "time": 74.53830625000005,
          "velocity": 0.7322834645669292,
          "duration": 0.23076874999999575
        },
        {
          "name": "A5",
          "midi": 81,
          "time": 74.76907500000004,
          "velocity": 0.6299212598425197,
          "duration": 0.23076874999999575
        },
        {
          "name": "D3",
          "midi": 50,
          "time": 74.76907500000004,
          "velocity": 0.5354330708661418,
          "duration": 0.4615374999999915
        },
        {
          "name": "A4",
          "midi": 69,
          "time": 74.99984375000004,
          "velocity": 0.44881889763779526,
          "duration": 0.23076874999999575
        },
        {
          "name": "E5",
          "midi": 76,
          "time": 75.23061250000003,
          "velocity": 0.6929133858267716,
          "duration": 0.23076874999999575
        },
        {
          "name": "A3",
          "midi": 57,
          "time": 75.23061250000003,
          "velocity": 0.6456692913385826,
          "duration": 0.4615374999999915
        },
        {
          "name": "A5",
          "midi": 81,
          "time": 75.46138125000003,
          "velocity": 0.7716535433070866,
          "duration": 0.23076874999999575
        },
        {
          "name": "A5",
          "midi": 81,
          "time": 75.69215000000003,
          "velocity": 0.6614173228346457,
          "duration": 0.23076874999999575
        },
        {
          "name": "E4",
          "midi": 64,
          "time": 75.69215000000003,
          "velocity": 0.7086614173228346,
          "duration": 0.4615374999999915
        },
        {
          "name": "A4",
          "midi": 69,
          "time": 75.92291875000002,
          "velocity": 0.48031496062992124,
          "duration": 0.23076874999999575
        },
        {
          "name": "D5",
          "midi": 74,
          "time": 76.15368750000002,
          "velocity": 0.6535433070866141,
          "duration": 0.23076874999999575
        },
        {
          "name": "D3",
          "midi": 50,
          "time": 76.15368750000002,
          "velocity": 0.5511811023622047,
          "duration": 0.4615374999999915
        },
        {
          "name": "A4",
          "midi": 69,
          "time": 76.38445625000001,
          "velocity": 0.5354330708661418,
          "duration": 0.23076874999999575
        },
        {
          "name": "C#5",
          "midi": 73,
          "time": 76.61522500000001,
          "velocity": 0.6299212598425197,
          "duration": 0.4615375000000057
        },
        {
          "name": "A2",
          "midi": 45,
          "time": 76.61522500000001,
          "velocity": 0.5669291338582677,
          "duration": 0.4615375000000057
        },
        {
          "name": "D5",
          "midi": 74,
          "time": 77.07676250000002,
          "velocity": 0.6220472440944882,
          "duration": 0.4615375000000057
        },
        {
          "name": "E3",
          "midi": 52,
          "time": 77.07676250000002,
          "velocity": 0.6692913385826772,
          "duration": 0.4615375000000057
        },
        {
          "name": "A4",
          "midi": 69,
          "time": 77.53830000000002,
          "velocity": 0.6456692913385826,
          "duration": 0.4615375000000057
        },
        {
          "name": "E5",
          "midi": 76,
          "time": 77.53830000000002,
          "velocity": 0.6456692913385826,
          "duration": 0.4615375000000057
        },
        {
          "name": "C#4",
          "midi": 61,
          "time": 77.53830000000002,
          "velocity": 0.7559055118110236,
          "duration": 0.4615375000000057
        },
        {
          "name": "C#5",
          "midi": 73,
          "time": 77.99983750000003,
          "velocity": 0.5196850393700787,
          "duration": 0.4615375000000057
        },
        {
          "name": "A2",
          "midi": 45,
          "time": 77.99983750000003,
          "velocity": 0.5433070866141733,
          "duration": 0.4615375000000057
        },
        {
          "name": "G#4",
          "midi": 68,
          "time": 78.46137500000003,
          "velocity": 0.5511811023622047,
          "duration": 1.3846125000000171
        },
        {
          "name": "B4",
          "midi": 71,
          "time": 78.46137500000003,
          "velocity": 0.5511811023622047,
          "duration": 1.3846125000000171
        },
        {
          "name": "E3",
          "midi": 52,
          "time": 78.46137500000003,
          "velocity": 0.6692913385826772,
          "duration": 0.4615375000000057
        },
        {
          "name": "B3",
          "midi": 59,
          "time": 78.92291250000004,
          "velocity": 0.6456692913385826,
          "duration": 0.4615375000000057
        },
        {
          "name": "E4",
          "midi": 64,
          "time": 79.38445000000004,
          "velocity": 0.7086614173228346,
          "duration": 0.9230749999999972
        },
        {
          "name": "A4",
          "midi": 69,
          "time": 79.84598750000005,
          "velocity": 0.5826771653543307,
          "duration": 0.23076874999999575
        },
        {
          "name": "G#4",
          "midi": 68,
          "time": 80.07675625000005,
          "velocity": 0.6141732283464567,
          "duration": 0.23076874999999575
        },
        {
          "name": "E4",
          "midi": 64,
          "time": 80.30752500000004,
          "velocity": 0.5826771653543307,
          "duration": 1.1538437500000072
        },
        {
          "name": "A4",
          "midi": 69,
          "time": 80.30752500000004,
          "velocity": 0.5826771653543307,
          "duration": 1.1538437500000072
        },
        {
          "name": "F#3",
          "midi": 54,
          "time": 80.30752500000004,
          "velocity": 0.5669291338582677,
          "duration": 0.4615375000000057
        },
        {
          "name": "B3",
          "midi": 59,
          "time": 80.76906250000005,
          "velocity": 0.6062992125984252,
          "duration": 1.3846124999999887
        },
        {
          "name": "E4",
          "midi": 64,
          "time": 81.46136875000005,
          "velocity": 0.5354330708661418,
          "duration": 0.23076874999999575
        },
        {
          "name": "A4",
          "midi": 69,
          "time": 81.69213750000004,
          "velocity": 0.6614173228346457,
          "duration": 0.23076874999999575
        },
        {
          "name": "B4",
          "midi": 71,
          "time": 81.92290625000004,
          "velocity": 0.6535433070866141,
          "duration": 0.23076874999999575
        },
        {
          "name": "C#5",
          "midi": 73,
          "time": 82.15367500000004,
          "velocity": 0.6377952755905512,
          "duration": 0.23076874999999575
        },
        {
          "name": "D3",
          "midi": 50,
          "time": 82.15367500000004,
          "velocity": 0.5354330708661418,
          "duration": 0.4615374999999915
        },
        {
          "name": "E4",
          "midi": 64,
          "time": 82.38444375000003,
          "velocity": 0.47244094488188976,
          "duration": 0.23076874999999575
        },
        {
          "name": "A4",
          "midi": 69,
          "time": 82.61521250000003,
          "velocity": 0.6456692913385826,
          "duration": 0.23076874999999575
        },
        {
          "name": "E4",
          "midi": 64,
          "time": 82.61521250000003,
          "velocity": 0.7165354330708661,
          "duration": 0.923074999999983
        },
        {
          "name": "B4",
          "midi": 71,
          "time": 82.84598125000002,
          "velocity": 0.6692913385826772,
          "duration": 0.23076874999999575
        },
        {
          "name": "C#5",
          "midi": 73,
          "time": 83.07675000000002,
          "velocity": 0.6535433070866141,
          "duration": 0.23076874999999575
        },
        {
          "name": "E4",
          "midi": 64,
          "time": 83.30751875000001,
          "velocity": 0.49606299212598426,
          "duration": 0.23076874999999575
        },
        {
          "name": "C#5",
          "midi": 73,
          "time": 83.53828750000001,
          "velocity": 0.6929133858267716,
          "duration": 0.23076874999999575
        },
        {
          "name": "E4",
          "midi": 64,
          "time": 83.53828750000001,
          "velocity": 0.6771653543307087,
          "duration": 0.4615374999999915
        },
        {
          "name": "D5",
          "midi": 74,
          "time": 83.76905625,
          "velocity": 0.6456692913385826,
          "duration": 0.23076874999999575
        },
        {
          "name": "E5",
          "midi": 76,
          "time": 83.999825,
          "velocity": 0.6692913385826772,
          "duration": 0.23076874999999575
        },
        {
          "name": "A2",
          "midi": 45,
          "time": 83.999825,
          "velocity": 0.5196850393700787,
          "duration": 0.4615374999999915
        },
        {
          "name": "E4",
          "midi": 64,
          "time": 84.23059375,
          "velocity": 0.47244094488188976,
          "duration": 0.23076874999999575
        },
        {
          "name": "C#5",
          "midi": 73,
          "time": 84.46136249999999,
          "velocity": 0.7086614173228346,
          "duration": 0.23076874999999575
        },
        {
          "name": "E3",
          "midi": 52,
          "time": 84.46136249999999,
          "velocity": 0.6535433070866141,
          "duration": 0.4615374999999915
        },
        {
          "name": "D5",
          "midi": 74,
          "time": 84.69213124999999,
          "velocity": 0.6456692913385826,
          "duration": 0.23076874999999575
        },
        {
          "name": "E5",
          "midi": 76,
          "time": 84.92289999999998,
          "velocity": 0.6141732283464567,
          "duration": 0.23076874999999575
        },
        {
          "name": "C#4",
          "midi": 61,
          "time": 84.92289999999998,
          "velocity": 0.7401574803149606,
          "duration": 0.4615374999999915
        },
        {
          "name": "E4",
          "midi": 64,
          "time": 85.15366874999998,
          "velocity": 0.44881889763779526,
          "duration": 0.23076874999999575
        },
        {
          "name": "D5",
          "midi": 74,
          "time": 85.38443749999998,
          "velocity": 0.7086614173228346,
          "duration": 0.23076874999999575
        },
        {
          "name": "A2",
          "midi": 45,
          "time": 85.38443749999998,
          "velocity": 0.5275590551181102,
          "duration": 0.4615374999999915
        },
        {
          "name": "C#5",
          "midi": 73,
          "time": 85.61520624999997,
          "velocity": 0.5905511811023622,
          "duration": 0.23076874999999575
        },
        {
          "name": "B4",
          "midi": 71,
          "time": 85.84597499999997,
          "velocity": 0.5905511811023622,
          "duration": 0.23076874999999575
        },
        {
          "name": "E3",
          "midi": 52,
          "time": 85.84597499999997,
          "velocity": 0.6220472440944882,
          "duration": 0.4615374999999915
        },
        {
          "name": "E4",
          "midi": 64,
          "time": 86.07674374999996,
          "velocity": 0.48031496062992124,
          "duration": 0.23076874999999575
        },
        {
          "name": "D5",
          "midi": 74,
          "time": 86.30751249999996,
          "velocity": 0.7165354330708661,
          "duration": 0.23076874999999575
        },
        {
          "name": "B3",
          "midi": 59,
          "time": 86.30751249999996,
          "velocity": 0.6850393700787402,
          "duration": 0.4615374999999915
        },
        {
          "name": "C#5",
          "midi": 73,
          "time": 86.53828124999995,
          "velocity": 0.5905511811023622,
          "duration": 0.23076874999999575
        },
        {
          "name": "B4",
          "midi": 71,
          "time": 86.76904999999995,
          "velocity": 0.5748031496062992,
          "duration": 0.4615375000000057
        },
        {
          "name": "E4",
          "midi": 64,
          "time": 86.76904999999995,
          "velocity": 0.6614173228346457,
          "duration": 0.9230750000000114
        },
        {
          "name": "G#4",
          "midi": 68,
          "time": 87.23058749999996,
          "velocity": 0.5354330708661418,
          "duration": 0.4615375000000057
        },
        {
          "name": "A5",
          "midi": 81,
          "time": 87.69212499999996,
          "velocity": 0.7401574803149606,
          "duration": 0.4615375000000057
        },
        {
          "name": "F#3",
          "midi": 54,
          "time": 87.69212499999996,
          "velocity": 0.5196850393700787,
          "duration": 0.4615375000000057
        },
        {
          "name": "G#5",
          "midi": 80,
          "time": 88.15366249999997,
          "velocity": 0.6062992125984252,
          "duration": 0.23076874999999575
        },
        {
          "name": "C#4",
          "midi": 61,
          "time": 88.15366249999997,
          "velocity": 0.7086614173228346,
          "duration": 0.4615374999999915
        },
        {
          "name": "A5",
          "midi": 81,
          "time": 88.38443124999996,
          "velocity": 0.6141732283464567,
          "duration": 0.4615374999999915
        },
        {
          "name": "F#4",
          "midi": 66,
          "time": 88.61519999999996,
          "velocity": 0.6929133858267716,
          "duration": 0.4615374999999915
        },
        {
          "name": "A4",
          "midi": 69,
          "time": 88.84596874999995,
          "velocity": 0.4094488188976378,
          "duration": 0.23076874999999575
        },
        {
          "name": "G#5",
          "midi": 80,
          "time": 89.07673749999995,
          "velocity": 0.7007874015748031,
          "duration": 0.23076874999999575
        },
        {
          "name": "F#3",
          "midi": 54,
          "time": 89.07673749999995,
          "velocity": 0.5275590551181102,
          "duration": 0.4615374999999915
        },
        {
          "name": "A5",
          "midi": 81,
          "time": 89.30750624999995,
          "velocity": 0.6456692913385826,
          "duration": 0.4615374999999915
        },
        {
          "name": "D3",
          "midi": 50,
          "time": 89.53827499999994,
          "velocity": 0.5275590551181102,
          "duration": 0.4615374999999915
        },
        {
          "name": "A4",
          "midi": 69,
          "time": 89.76904374999994,
          "velocity": 0.4330708661417323,
          "duration": 0.23076874999999575
        },
        {
          "name": "E5",
          "midi": 76,
          "time": 89.99981249999993,
          "velocity": 0.6692913385826772,
          "duration": 0.23076874999999575
        },
        {
          "name": "A3",
          "midi": 57,
          "time": 89.99981249999993,
          "velocity": 0.6220472440944882,
          "duration": 0.4615374999999915
        },
        {
          "name": "A5",
          "midi": 81,
          "time": 90.23058124999993,
          "velocity": 0.6850393700787402,
          "duration": 0.4615374999999915
        },
        {
          "name": "E4",
          "midi": 64,
          "time": 90.46134999999992,
          "velocity": 0.7165354330708661,
          "duration": 0.4615374999999915
        },
        {
          "name": "A4",
          "midi": 69,
          "time": 90.69211874999992,
          "velocity": 0.4409448818897638,
          "duration": 0.23076874999999575
        },
        {
          "name": "D5",
          "midi": 74,
          "time": 90.92288749999992,
          "velocity": 0.6456692913385826,
          "duration": 0.23076874999999575
        },
        {
          "name": "D3",
          "midi": 50,
          "time": 90.92288749999992,
          "velocity": 0.5511811023622047,
          "duration": 0.4615374999999915
        },
        {
          "name": "A4",
          "midi": 69,
          "time": 91.15365624999991,
          "velocity": 0.5354330708661418,
          "duration": 0.23076874999999575
        },
        {
          "name": "C#5",
          "midi": 73,
          "time": 91.38442499999991,
          "velocity": 0.6850393700787402,
          "duration": 0.4615375000000057
        },
        {
          "name": "A2",
          "midi": 45,
          "time": 91.38442499999991,
          "velocity": 0.5433070866141733,
          "duration": 0.4615375000000057
        },
        {
          "name": "D5",
          "midi": 74,
          "time": 91.84596249999991,
          "velocity": 0.6614173228346457,
          "duration": 0.4615375000000057
        },
        {
          "name": "E3",
          "midi": 52,
          "time": 91.84596249999991,
          "velocity": 0.6614173228346457,
          "duration": 0.4615375000000057
        },
        {
          "name": "E5",
          "midi": 76,
          "time": 92.30749999999992,
          "velocity": 0.6456692913385826,
          "duration": 0.4615375000000057
        },
        {
          "name": "C#4",
          "midi": 61,
          "time": 92.30749999999992,
          "velocity": 0.7401574803149606,
          "duration": 0.4615375000000057
        },
        {
          "name": "C#6",
          "midi": 85,
          "time": 92.76903749999992,
          "velocity": 0.7637795275590551,
          "duration": 0.4615375000000057
        },
        {
          "name": "A2",
          "midi": 45,
          "time": 92.76903749999992,
          "velocity": 0.5511811023622047,
          "duration": 0.4615375000000057
        },
        {
          "name": "B5",
          "midi": 83,
          "time": 93.23057499999993,
          "velocity": 0.5669291338582677,
          "duration": 0.4615375000000057
        },
        {
          "name": "E3",
          "midi": 52,
          "time": 93.23057499999993,
          "velocity": 0.6456692913385826,
          "duration": 0.4615375000000057
        },
        {
          "name": "E5",
          "midi": 76,
          "time": 93.69211249999994,
          "velocity": 0.49606299212598426,
          "duration": 0.4615375000000057
        },
        {
          "name": "B3",
          "midi": 59,
          "time": 93.69211249999994,
          "velocity": 0.6850393700787402,
          "duration": 0.4615375000000057
        },
        {
          "name": "B5",
          "midi": 83,
          "time": 94.15364999999994,
          "velocity": 0.6929133858267716,
          "duration": 0.4615375000000057
        },
        {
          "name": "E4",
          "midi": 64,
          "time": 94.15364999999994,
          "velocity": 0.6456692913385826,
          "duration": 0.4615375000000057
        },
        {
          "name": "A5",
          "midi": 81,
          "time": 94.61518749999995,
          "velocity": 0.5511811023622047,
          "duration": 0.23076874999999575
        },
        {
          "name": "E3",
          "midi": 52,
          "time": 94.61518749999995,
          "velocity": 0.5511811023622047,
          "duration": 0.4615374999999915
        },
        {
          "name": "G#5",
          "midi": 80,
          "time": 94.84595624999994,
          "velocity": 0.5826771653543307,
          "duration": 0.23076874999999575
        },
        {
          "name": "E5",
          "midi": 76,
          "time": 95.07672499999994,
          "velocity": 0.6377952755905512,
          "duration": 1.3846125000000171
        },
        {
          "name": "A5",
          "midi": 81,
          "time": 95.07672499999994,
          "velocity": 0.6377952755905512,
          "duration": 1.3846125000000171
        },
        {
          "name": "F#3",
          "midi": 54,
          "time": 95.07672499999994,
          "velocity": 0.6220472440944882,
          "duration": 0.4615375000000057
        },
        {
          "name": "C#4",
          "midi": 61,
          "time": 95.53826249999995,
          "velocity": 0.7086614173228346,
          "duration": 0.4615375000000057
        },
        {
          "name": "F#4",
          "midi": 66,
          "time": 95.99979999999995,
          "velocity": 0.6850393700787402,
          "duration": 0.9230749999999972
        },
        {
          "name": "A4",
          "midi": 69,
          "time": 96.46133749999996,
          "velocity": 0.4566929133858268,
          "duration": 0.23076874999999575
        },
        {
          "name": "B4",
          "midi": 71,
          "time": 96.69210624999995,
          "velocity": 0.6062992125984252,
          "duration": 0.23076874999999575
        },
        {
          "name": "C#5",
          "midi": 73,
          "time": 96.92287499999995,
          "velocity": 0.6771653543307087,
          "duration": 0.23076874999999575
        },
        {
          "name": "D3",
          "midi": 50,
          "time": 96.92287499999995,
          "velocity": 0.5039370078740157,
          "duration": 0.4615374999999915
        },
        {
          "name": "E4",
          "midi": 64,
          "time": 97.15364374999994,
          "velocity": 0.4409448818897638,
          "duration": 0.23076874999999575
        },
        {
          "name": "A4",
          "midi": 69,
          "time": 97.38441249999994,
          "velocity": 0.6929133858267716,
          "duration": 0.23076874999999575
        },
        {
          "name": "A3",
          "midi": 57,
          "time": 97.38441249999994,
          "velocity": 0.6456692913385826,
          "duration": 0.4615374999999915
        },
        {
          "name": "B4",
          "midi": 71,
          "time": 97.61518124999994,
          "velocity": 0.6220472440944882,
          "duration": 0.23076874999999575
        },
        {
          "name": "C#5",
          "midi": 73,
          "time": 97.84594999999993,
          "velocity": 0.6614173228346457,
          "duration": 0.23076874999999575
        },
        {
          "name": "E4",
          "midi": 64,
          "time": 97.84594999999993,
          "velocity": 0.7401574803149606,
          "duration": 0.4615374999999915
        },
        {
          "name": "E4",
          "midi": 64,
          "time": 98.07671874999993,
          "velocity": 0.4645669291338583,
          "duration": 0.23076874999999575
        },
        {
          "name": "C#5",
          "midi": 73,
          "time": 98.30748749999992,
          "velocity": 0.7165354330708661,
          "duration": 0.23076874999999575
        },
        {
          "name": "D3",
          "midi": 50,
          "time": 98.30748749999992,
          "velocity": 0.5433070866141733,
          "duration": 0.4615374999999915
        },
        {
          "name": "D5",
          "midi": 74,
          "time": 98.53825624999992,
          "velocity": 0.6377952755905512,
          "duration": 0.23076874999999575
        },
        {
          "name": "E5",
          "midi": 76,
          "time": 98.76902499999991,
          "velocity": 0.6535433070866141,
          "duration": 0.23076874999999575
        },
        {
          "name": "A2",
          "midi": 45,
          "time": 98.76902499999991,
          "velocity": 0.5590551181102362,
          "duration": 0.4615374999999915
        },
        {
          "name": "E4",
          "midi": 64,
          "time": 98.99979374999991,
          "velocity": 0.44881889763779526,
          "duration": 0.23076874999999575
        },
        {
          "name": "C#5",
          "midi": 73,
          "time": 99.2305624999999,
          "velocity": 0.7086614173228346,
          "duration": 0.23076874999999575
        },
        {
          "name": "E3",
          "midi": 52,
          "time": 99.2305624999999,
          "velocity": 0.6614173228346457,
          "duration": 0.4615374999999915
        },
        {
          "name": "D5",
          "midi": 74,
          "time": 99.4613312499999,
          "velocity": 0.6456692913385826,
          "duration": 0.23076874999999575
        },
        {
          "name": "E5",
          "midi": 76,
          "time": 99.6920999999999,
          "velocity": 0.6377952755905512,
          "duration": 0.23076874999999575
        },
        {
          "name": "C#4",
          "midi": 61,
          "time": 99.6920999999999,
          "velocity": 0.7244094488188977,
          "duration": 0.4615374999999915
        },
        {
          "name": "E4",
          "midi": 64,
          "time": 99.92286874999989,
          "velocity": 0.4251968503937008,
          "duration": 0.23076874999999575
        },
        {
          "name": "D5",
          "midi": 74,
          "time": 100.15363749999989,
          "velocity": 0.7165354330708661,
          "duration": 0.23076874999999575
        },
        {
          "name": "A2",
          "midi": 45,
          "time": 100.15363749999989,
          "velocity": 0.5354330708661418,
          "duration": 0.4615374999999915
        },
        {
          "name": "C#5",
          "midi": 73,
          "time": 100.38440624999988,
          "velocity": 0.5905511811023622,
          "duration": 0.23076874999999575
        },
        {
          "name": "B4",
          "midi": 71,
          "time": 100.61517499999988,
          "velocity": 0.5354330708661418,
          "duration": 0.23076874999999575
        },
        {
          "name": "E2",
          "midi": 40,
          "time": 100.61517499999988,
          "velocity": 0.5354330708661418,
          "duration": 0.4615374999999915
        },
        {
          "name": "E4",
          "midi": 64,
          "time": 100.84594374999988,
          "velocity": 0.48031496062992124,
          "duration": 0.23076874999999575
        },
        {
          "name": "G#4",
          "midi": 68,
          "time": 101.07671249999987,
          "velocity": 0.6220472440944882,
          "duration": 0.23076874999999575
        },
        {
          "name": "B2",
          "midi": 47,
          "time": 101.07671249999987,
          "velocity": 0.6535433070866141,
          "duration": 0.4615374999999915
        },
        {
          "name": "B4",
          "midi": 71,
          "time": 101.30748124999987,
          "velocity": 0.6377952755905512,
          "duration": 0.23076874999999575
        },
        {
          "name": "A5",
          "midi": 81,
          "time": 101.53824999999986,
          "velocity": 0.7244094488188977,
          "duration": 0.23076874999999575
        },
        {
          "name": "G#3",
          "midi": 56,
          "time": 101.53824999999986,
          "velocity": 0.6299212598425197,
          "duration": 0.4615374999999915
        },
        {
          "name": "B5",
          "midi": 83,
          "time": 101.76901874999986,
          "velocity": 0.6377952755905512,
          "duration": 0.23076874999999575
        },
        {
          "name": "A5",
          "midi": 81,
          "time": 101.99978749999985,
          "velocity": 0.5748031496062992,
          "duration": 0.23076874999999575
        },
        {
          "name": "E2",
          "midi": 40,
          "time": 101.99978749999985,
          "velocity": 0.5511811023622047,
          "duration": 0.4615374999999915
        },
        {
          "name": "G#5",
          "midi": 80,
          "time": 102.23055624999985,
          "velocity": 0.5354330708661418,
          "duration": 0.23076874999999575
        },
        {
          "name": "A5",
          "midi": 81,
          "time": 102.46132499999985,
          "velocity": 0.6299212598425197,
          "duration": 0.23076874999999575
        },
        {
          "name": "F#2",
          "midi": 42,
          "time": 102.46132499999985,
          "velocity": 0.5984251968503937,
          "duration": 0.4615374999999915
        },
        {
          "name": "A4",
          "midi": 69,
          "time": 102.69209374999984,
          "velocity": 0.41732283464566927,
          "duration": 0.23076874999999575
        },
        {
          "name": "E5",
          "midi": 76,
          "time": 102.92286249999984,
          "velocity": 0.6692913385826772,
          "duration": 0.23076874999999575
        },
        {
          "name": "C#3",
          "midi": 49,
          "time": 102.92286249999984,
          "velocity": 0.6614173228346457,
          "duration": 0.4615374999999915
        },
        {
          "name": "A4",
          "midi": 69,
          "time": 103.15363124999983,
          "velocity": 0.5039370078740157,
          "duration": 0.23076874999999575
        },
        {
          "name": "A5",
          "midi": 81,
          "time": 103.38439999999983,
          "velocity": 0.7244094488188977,
          "duration": 0.23076874999999575
        },
        {
          "name": "F#3",
          "midi": 54,
          "time": 103.38439999999983,
          "velocity": 0.6614173228346457,
          "duration": 0.4615375000000057
        },
        {
          "name": "A5",
          "midi": 81,
          "time": 103.61516874999982,
          "velocity": 0.6456692913385826,
          "duration": 0.11538437500000498
        },
        {
          "name": "B5",
          "midi": 83,
          "time": 103.73055312499983,
          "velocity": 0.6456692913385826,
          "duration": 0.11538437500000498
        },
        {
          "name": "B5",
          "midi": 83,
          "time": 103.84593749999983,
          "velocity": 0.5905511811023622,
          "duration": 0.23076874999999575
        },
        {
          "name": "F#2",
          "midi": 42,
          "time": 103.84593749999983,
          "velocity": 0.5354330708661418,
          "duration": 0.4615374999999915
        },
        {
          "name": "G#5",
          "midi": 80,
          "time": 104.07670624999983,
          "velocity": 0.5748031496062992,
          "duration": 0.23076874999999575
        },
        {
          "name": "A5",
          "midi": 81,
          "time": 104.30747499999983,
          "velocity": 0.6141732283464567,
          "duration": 0.23076874999999575
        },
        {
          "name": "D3",
          "midi": 50,
          "time": 104.30747499999983,
          "velocity": 0.6377952755905512,
          "duration": 0.4615374999999915
        },
        {
          "name": "A4",
          "midi": 69,
          "time": 104.53824374999982,
          "velocity": 0.4330708661417323,
          "duration": 0.23076874999999575
        },
        {
          "name": "E5",
          "midi": 76,
          "time": 104.76901249999982,
          "velocity": 0.6692913385826772,
          "duration": 0.23076874999999575
        },
        {
          "name": "A3",
          "midi": 57,
          "time": 104.76901249999982,
          "velocity": 0.6771653543307087,
          "duration": 0.4615374999999915
        },
        {
          "name": "A4",
          "midi": 69,
          "time": 104.99978124999981,
          "velocity": 0.5039370078740157,
          "duration": 0.23076874999999575
        },
        {
          "name": "A5",
          "midi": 81,
          "time": 105.23054999999981,
          "velocity": 0.7322834645669292,
          "duration": 0.23076874999999575
        },
        {
          "name": "D4",
          "midi": 62,
          "time": 105.23054999999981,
          "velocity": 0.7244094488188977,
          "duration": 0.4615375000000057
        },
        {
          "name": "A5",
          "midi": 81,
          "time": 105.4613187499998,
          "velocity": 0.6456692913385826,
          "duration": 0.11538437500000498
        },
        {
          "name": "B5",
          "midi": 83,
          "time": 105.57670312499981,
          "velocity": 0.6456692913385826,
          "duration": 0.11538437500000498
        },
        {
          "name": "A5",
          "midi": 81,
          "time": 105.69208749999981,
          "velocity": 0.5748031496062992,
          "duration": 0.23076874999999575
        },
        {
          "name": "D3",
          "midi": 50,
          "time": 105.69208749999981,
          "velocity": 0.49606299212598426,
          "duration": 0.4615374999999915
        },
        {
          "name": "G#5",
          "midi": 80,
          "time": 105.92285624999981,
          "velocity": 0.5826771653543307,
          "duration": 0.23076874999999575
        },
        {
          "name": "A5",
          "midi": 81,
          "time": 106.1536249999998,
          "velocity": 0.5984251968503937,
          "duration": 0.23076874999999575
        },
        {
          "name": "A2",
          "midi": 45,
          "time": 106.1536249999998,
          "velocity": 0.5669291338582677,
          "duration": 0.4615374999999915
        },
        {
          "name": "B5",
          "midi": 83,
          "time": 106.3843937499998,
          "velocity": 0.6771653543307087,
          "duration": 0.23076874999999575
        },
        {
          "name": "C#6",
          "midi": 85,
          "time": 106.6151624999998,
          "velocity": 0.6377952755905512,
          "duration": 0.23076874999999575
        },
        {
          "name": "E3",
          "midi": 52,
          "time": 106.6151624999998,
          "velocity": 0.6299212598425197,
          "duration": 0.4615374999999915
        },
        {
          "name": "D6",
          "midi": 86,
          "time": 106.8459312499998,
          "velocity": 0.6299212598425197,
          "duration": 0.23076874999999575
        },
        {
          "name": "E6",
          "midi": 88,
          "time": 107.07669999999979,
          "velocity": 0.6535433070866141,
          "duration": 0.23076874999999575
        },
        {
          "name": "B3",
          "midi": 59,
          "time": 107.07669999999979,
          "velocity": 0.6771653543307087,
          "duration": 0.4615374999999915
        },
        {
          "name": "C#6",
          "midi": 85,
          "time": 107.30746874999979,
          "velocity": 0.5669291338582677,
          "duration": 0.23076874999999575
        },
        {
          "name": "B5",
          "midi": 83,
          "time": 107.53823749999978,
          "velocity": 0.5511811023622047,
          "duration": 0.23076874999999575
        },
        {
          "name": "A2",
          "midi": 45,
          "time": 107.53823749999978,
          "velocity": 0.5590551181102362,
          "duration": 0.4615374999999915
        },
        {
          "name": "A5",
          "midi": 81,
          "time": 107.76900624999978,
          "velocity": 0.5196850393700787,
          "duration": 0.23076874999999575
        },
        {
          "name": "G#5",
          "midi": 80,
          "time": 107.99977499999977,
          "velocity": 0.6062992125984252,
          "duration": 0.23076874999999575
        },
        {
          "name": "F#2",
          "midi": 42,
          "time": 107.99977499999977,
          "velocity": 0.5669291338582677,
          "duration": 0.4615374999999915
        },
        {
          "name": "B4",
          "midi": 71,
          "time": 108.23054374999977,
          "velocity": 0.44881889763779526,
          "duration": 0.23076874999999575
        },
        {
          "name": "E5",
          "midi": 76,
          "time": 108.46131249999976,
          "velocity": 0.6377952755905512,
          "duration": 0.23076874999999575
        },
        {
          "name": "B2",
          "midi": 47,
          "time": 108.46131249999976,
          "velocity": 0.6456692913385826,
          "duration": 0.4615374999999915
        },
        {
          "name": "B4",
          "midi": 71,
          "time": 108.69208124999976,
          "velocity": 0.5039370078740157,
          "duration": 0.23076874999999575
        },
        {
          "name": "A5",
          "midi": 81,
          "time": 108.92284999999976,
          "velocity": 0.7480314960629921,
          "duration": 0.23076874999999575
        },
        {
          "name": "G#3",
          "midi": 56,
          "time": 108.92284999999976,
          "velocity": 0.6535433070866141,
          "duration": 0.4615375000000057
        },
        {
          "name": "A5",
          "midi": 81,
          "time": 109.15361874999975,
          "velocity": 0.6299212598425197,
          "duration": 0.11538437500000498
        },
        {
          "name": "B5",
          "midi": 83,
          "time": 109.26900312499976,
          "velocity": 0.6220472440944882,
          "duration": 0.11538437500000498
        },
        {
          "name": "A5",
          "midi": 81,
          "time": 109.38438749999976,
          "velocity": 0.5984251968503937,
          "duration": 0.23076874999999575
        },
        {
          "name": "F#2",
          "midi": 42,
          "time": 109.38438749999976,
          "velocity": 0.5039370078740157,
          "duration": 0.4615374999999915
        },
        {
          "name": "G#5",
          "midi": 80,
          "time": 109.61515624999976,
          "velocity": 0.5511811023622047,
          "duration": 0.23076874999999575
        },
        {
          "name": "A5",
          "midi": 81,
          "time": 109.84592499999975,
          "velocity": 0.6220472440944882,
          "duration": 0.23076874999999575
        },
        {
          "name": "F#2",
          "midi": 42,
          "time": 109.84592499999975,
          "velocity": 0.5984251968503937,
          "duration": 0.4615374999999915
        },
        {
          "name": "A4",
          "midi": 69,
          "time": 110.07669374999975,
          "velocity": 0.4330708661417323,
          "duration": 0.23076874999999575
        },
        {
          "name": "E5",
          "midi": 76,
          "time": 110.30746249999974,
          "velocity": 0.6456692913385826,
          "duration": 0.23076874999999575
        },
        {
          "name": "C#3",
          "midi": 49,
          "time": 110.30746249999974,
          "velocity": 0.6377952755905512,
          "duration": 0.4615374999999915
        },
        {
          "name": "A4",
          "midi": 69,
          "time": 110.53823124999974,
          "velocity": 0.5118110236220472,
          "duration": 0.23076874999999575
        },
        {
          "name": "A5",
          "midi": 81,
          "time": 110.76899999999974,
          "velocity": 0.7480314960629921,
          "duration": 0.23076874999999575
        },
        {
          "name": "F#3",
          "midi": 54,
          "time": 110.76899999999974,
          "velocity": 0.6614173228346457,
          "duration": 0.4615375000000057
        },
        {
          "name": "A5",
          "midi": 81,
          "time": 110.99976874999973,
          "velocity": 0.5905511811023622,
          "duration": 0.11538437500000498
        },
        {
          "name": "B5",
          "midi": 83,
          "time": 111.11515312499974,
          "velocity": 0.6535433070866141,
          "duration": 0.11538437500000498
        },
        {
          "name": "B5",
          "midi": 83,
          "time": 111.23053749999974,
          "velocity": 0.6220472440944882,
          "duration": 0.23076874999999575
        },
        {
          "name": "F#2",
          "midi": 42,
          "time": 111.23053749999974,
          "velocity": 0.5196850393700787,
          "duration": 0.4615374999999915
        },
        {
          "name": "G#5",
          "midi": 80,
          "time": 111.46130624999974,
          "velocity": 0.5669291338582677,
          "duration": 0.23076874999999575
        },
        {
          "name": "A5",
          "midi": 81,
          "time": 111.69207499999973,
          "velocity": 0.6220472440944882,
          "duration": 0.23076874999999575
        },
        {
          "name": "D3",
          "midi": 50,
          "time": 111.69207499999973,
          "velocity": 0.6377952755905512,
          "duration": 0.4615374999999915
        },
        {
          "name": "A4",
          "midi": 69,
          "time": 111.92284374999973,
          "velocity": 0.4251968503937008,
          "duration": 0.23076874999999575
        },
        {
          "name": "E5",
          "midi": 76,
          "time": 112.15361249999972,
          "velocity": 0.6850393700787402,
          "duration": 0.23076874999999575
        },
        {
          "name": "A3",
          "midi": 57,
          "time": 112.15361249999972,
          "velocity": 0.6377952755905512,
          "duration": 0.4615374999999915
        },
        {
          "name": "A4",
          "midi": 69,
          "time": 112.38438124999972,
          "velocity": 0.49606299212598426,
          "duration": 0.23076874999999575
        },
        {
          "name": "A5",
          "midi": 81,
          "time": 112.61514999999972,
          "velocity": 0.7559055118110236,
          "duration": 0.23076874999999575
        },
        {
          "name": "D4",
          "midi": 62,
          "time": 112.61514999999972,
          "velocity": 0.7086614173228346,
          "duration": 0.4615375000000057
        },
        {
          "name": "A5",
          "midi": 81,
          "time": 112.84591874999971,
          "velocity": 0.6377952755905512,
          "duration": 0.11538437500000498
        },
        {
          "name": "B5",
          "midi": 83,
          "time": 112.96130312499972,
          "velocity": 0.6220472440944882,
          "duration": 0.11538437500000498
        },
        {
          "name": "A5",
          "midi": 81,
          "time": 113.07668749999972,
          "velocity": 0.5826771653543307,
          "duration": 0.23076874999999575
        },
        {
          "name": "D3",
          "midi": 50,
          "time": 113.07668749999972,
          "velocity": 0.5196850393700787,
          "duration": 0.4615374999999915
        },
        {
          "name": "G#5",
          "midi": 80,
          "time": 113.30745624999972,
          "velocity": 0.5748031496062992,
          "duration": 0.23076874999999575
        },
        {
          "name": "A5",
          "midi": 81,
          "time": 113.53822499999971,
          "velocity": 0.6062992125984252,
          "duration": 0.23076874999999575
        },
        {
          "name": "A2",
          "midi": 45,
          "time": 113.53822499999971,
          "velocity": 0.5590551181102362,
          "duration": 0.4615374999999915
        },
        {
          "name": "B5",
          "midi": 83,
          "time": 113.76899374999971,
          "velocity": 0.6299212598425197,
          "duration": 0.23076874999999575
        },
        {
          "name": "C#6",
          "midi": 85,
          "time": 113.9997624999997,
          "velocity": 0.6220472440944882,
          "duration": 0.23076874999999575
        },
        {
          "name": "E3",
          "midi": 52,
          "time": 113.9997624999997,
          "velocity": 0.6220472440944882,
          "duration": 0.4615374999999915
        },
        {
          "name": "D6",
          "midi": 86,
          "time": 114.2305312499997,
          "velocity": 0.6535433070866141,
          "duration": 0.23076874999999575
        },
        {
          "name": "E6",
          "midi": 88,
          "time": 114.4612999999997,
          "velocity": 0.6377952755905512,
          "duration": 0.23076874999999575
        },
        {
          "name": "B3",
          "midi": 59,
          "time": 114.4612999999997,
          "velocity": 0.6850393700787402,
          "duration": 0.4615374999999915
        },
        {
          "name": "C#6",
          "midi": 85,
          "time": 114.69206874999969,
          "velocity": 0.5275590551181102,
          "duration": 0.23076874999999575
        },
        {
          "name": "B5",
          "midi": 83,
          "time": 114.92283749999969,
          "velocity": 0.5196850393700787,
          "duration": 0.23076874999999575
        },
        {
          "name": "A2",
          "midi": 45,
          "time": 114.92283749999969,
          "velocity": 0.5354330708661418,
          "duration": 0.4615374999999915
        },
        {
          "name": "A5",
          "midi": 81,
          "time": 115.15360624999968,
          "velocity": 0.5590551181102362,
          "duration": 0.23076874999999575
        },
        {
          "name": "G#5",
          "midi": 80,
          "time": 115.38437499999968,
          "velocity": 0.5511811023622047,
          "duration": 0.23076874999999575
        },
        {
          "name": "F#2",
          "midi": 42,
          "time": 115.38437499999968,
          "velocity": 0.5669291338582677,
          "duration": 0.4615374999999915
        },
        {
          "name": "B4",
          "midi": 71,
          "time": 115.61514374999967,
          "velocity": 0.48031496062992124,
          "duration": 0.23076874999999575
        },
        {
          "name": "E5",
          "midi": 76,
          "time": 115.84591249999967,
          "velocity": 0.6850393700787402,
          "duration": 0.23076874999999575
        },
        {
          "name": "B2",
          "midi": 47,
          "time": 115.84591249999967,
          "velocity": 0.6614173228346457,
          "duration": 0.4615374999999915
        },
        {
          "name": "B4",
          "midi": 71,
          "time": 116.07668124999967,
          "velocity": 0.5275590551181102,
          "duration": 0.23076874999999575
        },
        {
          "name": "A5",
          "midi": 81,
          "time": 116.30744999999966,
          "velocity": 0.7165354330708661,
          "duration": 0.23076874999999575
        },
        {
          "name": "G#3",
          "midi": 56,
          "time": 116.30744999999966,
          "velocity": 0.6850393700787402,
          "duration": 0.4615375000000057
        },
        {
          "name": "A5",
          "midi": 81,
          "time": 116.53821874999966,
          "velocity": 0.6220472440944882,
          "duration": 0.11538437500000498
        },
        {
          "name": "B5",
          "midi": 83,
          "time": 116.65360312499966,
          "velocity": 0.6299212598425197,
          "duration": 0.11538437500000498
        },
        {
          "name": "A5",
          "midi": 81,
          "time": 116.76898749999967,
          "velocity": 0.5669291338582677,
          "duration": 0.23076874999999575
        },
        {
          "name": "F#2",
          "midi": 42,
          "time": 116.76898749999967,
          "velocity": 0.5275590551181102,
          "duration": 0.4615374999999915
        },
        {
          "name": "G#5",
          "midi": 80,
          "time": 116.99975624999966,
          "velocity": 0.5511811023622047,
          "duration": 0.23076874999999575
        },
        {
          "name": "A5",
          "midi": 81,
          "time": 117.23052499999966,
          "velocity": 0.6220472440944882,
          "duration": 0.23076874999999575
        },
        {
          "name": "F#2",
          "midi": 42,
          "time": 117.23052499999966,
          "velocity": 0.6062992125984252,
          "duration": 0.4615374999999915
        },
        {
          "name": "A4",
          "midi": 69,
          "time": 117.46129374999965,
          "velocity": 0.4251968503937008,
          "duration": 0.23076874999999575
        },
        {
          "name": "E5",
          "midi": 76,
          "time": 117.69206249999965,
          "velocity": 0.6535433070866141,
          "duration": 0.23076874999999575
        },
        {
          "name": "C#3",
          "midi": 49,
          "time": 117.69206249999965,
          "velocity": 0.6377952755905512,
          "duration": 0.4615374999999915
        },
        {
          "name": "A4",
          "midi": 69,
          "time": 117.92283124999965,
          "velocity": 0.5433070866141733,
          "duration": 0.23076874999999575
        },
        {
          "name": "A5",
          "midi": 81,
          "time": 118.15359999999964,
          "velocity": 0.7244094488188977,
          "duration": 0.23076874999999575
        },
        {
          "name": "F#3",
          "midi": 54,
          "time": 118.15359999999964,
          "velocity": 0.6535433070866141,
          "duration": 0.4615374999999915
        },
        {
          "name": "B5",
          "midi": 83,
          "time": 118.38436874999964,
          "velocity": 0.6535433070866141,
          "duration": 0.23076874999999575
        },
        {
          "name": "A5",
          "midi": 81,
          "time": 118.61513749999963,
          "velocity": 0.5669291338582677,
          "duration": 0.23076874999999575
        },
        {
          "name": "F#2",
          "midi": 42,
          "time": 118.61513749999963,
          "velocity": 0.5433070866141733,
          "duration": 0.4615374999999915
        },
        {
          "name": "G#5",
          "midi": 80,
          "time": 118.84590624999963,
          "velocity": 0.5826771653543307,
          "duration": 0.23076874999999575
        },
        {
          "name": "A5",
          "midi": 81,
          "time": 119.07667499999963,
          "velocity": 0.6220472440944882,
          "duration": 0.23076874999999575
        },
        {
          "name": "D3",
          "midi": 50,
          "time": 119.07667499999963,
          "velocity": 0.6377952755905512,
          "duration": 0.4615374999999915
        },
        {
          "name": "A4",
          "midi": 69,
          "time": 119.30744374999962,
          "velocity": 0.44881889763779526,
          "duration": 0.23076874999999575
        },
        {
          "name": "E5",
          "midi": 76,
          "time": 119.53821249999962,
          "velocity": 0.6771653543307087,
          "duration": 0.23076874999999575
        },
        {
          "name": "A3",
          "midi": 57,
          "time": 119.53821249999962,
          "velocity": 0.6220472440944882,
          "duration": 0.4615374999999915
        },
        {
          "name": "A4",
          "midi": 69,
          "time": 119.76898124999961,
          "velocity": 0.48031496062992124,
          "duration": 0.23076874999999575
        },
        {
          "name": "A5",
          "midi": 81,
          "time": 119.99974999999961,
          "velocity": 0.7401574803149606,
          "duration": 0.23076874999999575
        },
        {
          "name": "D4",
          "midi": 62,
          "time": 119.99974999999961,
          "velocity": 0.7244094488188977,
          "duration": 0.4615374999999915
        },
        {
          "name": "B5",
          "midi": 83,
          "time": 120.2305187499996,
          "velocity": 0.6614173228346457,
          "duration": 0.23076874999999575
        },
        {
          "name": "A5",
          "midi": 81,
          "time": 120.4612874999996,
          "velocity": 0.5590551181102362,
          "duration": 0.23076874999999575
        },
        {
          "name": "D3",
          "midi": 50,
          "time": 120.4612874999996,
          "velocity": 0.5433070866141733,
          "duration": 0.4615374999999915
        },
        {
          "name": "G#5",
          "midi": 80,
          "time": 120.6920562499996,
          "velocity": 0.5590551181102362,
          "duration": 0.23076874999999575
        },
        {
          "name": "A5",
          "midi": 81,
          "time": 120.92282499999959,
          "velocity": 0.6141732283464567,
          "duration": 0.23076874999999575
        },
        {
          "name": "A2",
          "midi": 45,
          "time": 120.92282499999959,
          "velocity": 0.5275590551181102,
          "duration": 0.4615374999999915
        },
        {
          "name": "B5",
          "midi": 83,
          "time": 121.15359374999959,
          "velocity": 0.6299212598425197,
          "duration": 0.23076874999999575
        },
        {
          "name": "C#6",
          "midi": 85,
          "time": 121.38436249999958,
          "velocity": 0.6062992125984252,
          "duration": 0.23076874999999575
        },
        {
          "name": "E3",
          "midi": 52,
          "time": 121.38436249999958,
          "velocity": 0.6692913385826772,
          "duration": 0.4615374999999915
        },
        {
          "name": "D6",
          "midi": 86,
          "time": 121.61513124999958,
          "velocity": 0.6220472440944882,
          "duration": 0.23076874999999575
        },
        {
          "name": "E6",
          "midi": 88,
          "time": 121.84589999999957,
          "velocity": 0.6299212598425197,
          "duration": 0.23076874999999575
        },
        {
          "name": "B3",
          "midi": 59,
          "time": 121.84589999999957,
          "velocity": 0.6692913385826772,
          "duration": 0.4615374999999915
        },
        {
          "name": "C#6",
          "midi": 85,
          "time": 122.07666874999957,
          "velocity": 0.5118110236220472,
          "duration": 0.23076874999999575
        },
        {
          "name": "B5",
          "midi": 83,
          "time": 122.30743749999957,
          "velocity": 0.5433070866141733,
          "duration": 0.23076874999999575
        },
        {
          "name": "A2",
          "midi": 45,
          "time": 122.30743749999957,
          "velocity": 0.5590551181102362,
          "duration": 0.4615374999999915
        },
        {
          "name": "A5",
          "midi": 81,
          "time": 122.53820624999956,
          "velocity": 0.5590551181102362,
          "duration": 0.23076874999999575
        },
        {
          "name": "G#5",
          "midi": 80,
          "time": 122.76897499999956,
          "velocity": 0.5748031496062992,
          "duration": 0.4615375000000057
        },
        {
          "name": "F#2",
          "midi": 42,
          "time": 122.76897499999956,
          "velocity": 0.5590551181102362,
          "duration": 0.4615375000000057
        },
        {
          "name": "B4",
          "midi": 71,
          "time": 123.23051249999956,
          "velocity": 0.4409448818897638,
          "duration": 0.4615375000000057
        },
        {
          "name": "B2",
          "midi": 47,
          "time": 123.23051249999956,
          "velocity": 0.6692913385826772,
          "duration": 0.4615375000000057
        },
        {
          "name": "A5",
          "midi": 81,
          "time": 123.69204999999957,
          "velocity": 0.7322834645669292,
          "duration": 0.23076874999999575
        },
        {
          "name": "G#3",
          "midi": 56,
          "time": 123.69204999999957,
          "velocity": 0.6850393700787402,
          "duration": 0.4615375000000057
        },
        {
          "name": "A5",
          "midi": 81,
          "time": 123.92281874999956,
          "velocity": 0.6141732283464567,
          "duration": 0.11538437500000498
        },
        {
          "name": "B5",
          "midi": 83,
          "time": 124.03820312499957,
          "velocity": 0.6299212598425197,
          "duration": 0.11538437500000498
        },
        {
          "name": "B5",
          "midi": 83,
          "time": 124.15358749999957,
          "velocity": 0.5905511811023622,
          "duration": 0.23076874999999575
        },
        {
          "name": "F#2",
          "midi": 42,
          "time": 124.15358749999957,
          "velocity": 0.5275590551181102,
          "duration": 0.4615374999999915
        },
        {
          "name": "G#5",
          "midi": 80,
          "time": 124.38435624999957,
          "velocity": 0.5354330708661418,
          "duration": 0.23076874999999575
        },
        {
          "name": "A5",
          "midi": 81,
          "time": 124.61512499999957,
          "velocity": 0.6377952755905512,
          "duration": 0.23076874999999575
        },
        {
          "name": "F#2",
          "midi": 42,
          "time": 124.61512499999957,
          "velocity": 0.5905511811023622,
          "duration": 0.4615374999999915
        },
        {
          "name": "A4",
          "midi": 69,
          "time": 124.84589374999956,
          "velocity": 0.44881889763779526,
          "duration": 0.23076874999999575
        },
        {
          "name": "E5",
          "midi": 76,
          "time": 125.07666249999956,
          "velocity": 0.6614173228346457,
          "duration": 0.23076874999999575
        },
        {
          "name": "C#3",
          "midi": 49,
          "time": 125.07666249999956,
          "velocity": 0.6299212598425197,
          "duration": 0.4615374999999915
        },
        {
          "name": "A4",
          "midi": 69,
          "time": 125.30743124999955,
          "velocity": 0.5039370078740157,
          "duration": 0.23076874999999575
        },
        {
          "name": "A5",
          "midi": 81,
          "time": 125.53819999999955,
          "velocity": 0.7401574803149606,
          "duration": 0.23076874999999575
        },
        {
          "name": "F#3",
          "midi": 54,
          "time": 125.53819999999955,
          "velocity": 0.6535433070866141,
          "duration": 0.4615375000000057
        },
        {
          "name": "A5",
          "midi": 81,
          "time": 125.76896874999954,
          "velocity": 0.6062992125984252,
          "duration": 0.11538437500000498
        },
        {
          "name": "B5",
          "midi": 83,
          "time": 125.88435312499955,
          "velocity": 0.6535433070866141,
          "duration": 0.11538437500000498
        },
        {
          "name": "A5",
          "midi": 81,
          "time": 125.99973749999955,
          "velocity": 0.5433070866141733,
          "duration": 0.23076874999999575
        },
        {
          "name": "F#2",
          "midi": 42,
          "time": 125.99973749999955,
          "velocity": 0.5118110236220472,
          "duration": 0.4615374999999915
        },
        {
          "name": "G#5",
          "midi": 80,
          "time": 126.23050624999955,
          "velocity": 0.5669291338582677,
          "duration": 0.23076874999999575
        },
        {
          "name": "A5",
          "midi": 81,
          "time": 126.46127499999955,
          "velocity": 0.6220472440944882,
          "duration": 0.23076874999999575
        },
        {
          "name": "D3",
          "midi": 50,
          "time": 126.46127499999955,
          "velocity": 0.6456692913385826,
          "duration": 0.4615374999999915
        },
        {
          "name": "A4",
          "midi": 69,
          "time": 126.69204374999954,
          "velocity": 0.44881889763779526,
          "duration": 0.23076874999999575
        },
        {
          "name": "E5",
          "midi": 76,
          "time": 126.92281249999954,
          "velocity": 0.7086614173228346,
          "duration": 0.23076874999999575
        },
        {
          "name": "A3",
          "midi": 57,
          "time": 126.92281249999954,
          "velocity": 0.6614173228346457,
          "duration": 0.4615374999999915
        },
        {
          "name": "A4",
          "midi": 69,
          "time": 127.15358124999953,
          "velocity": 0.47244094488188976,
          "duration": 0.23076874999999575
        },
        {
          "name": "A5",
          "midi": 81,
          "time": 127.38434999999953,
          "velocity": 0.7480314960629921,
          "duration": 0.23076874999999575
        },
        {
          "name": "E4",
          "midi": 64,
          "time": 127.38434999999953,
          "velocity": 0.7165354330708661,
          "duration": 0.4615375000000057
        },
        {
          "name": "A5",
          "midi": 81,
          "time": 127.61511874999952,
          "velocity": 0.6299212598425197,
          "duration": 0.11538437500000498
        },
        {
          "name": "B5",
          "midi": 83,
          "time": 127.73050312499953,
          "velocity": 0.6535433070866141,
          "duration": 0.11538437500000498
        },
        {
          "name": "A5",
          "midi": 81,
          "time": 127.84588749999953,
          "velocity": 0.5669291338582677,
          "duration": 0.23076874999999575
        },
        {
          "name": "D3",
          "midi": 50,
          "time": 127.84588749999953,
          "velocity": 0.5275590551181102,
          "duration": 0.4615375000000057
        },
        {
          "name": "G#5",
          "midi": 80,
          "time": 128.07665624999953,
          "velocity": 0.6141732283464567,
          "duration": 0.23076875000000996
        },
        {
          "name": "A5",
          "midi": 81,
          "time": 128.30742499999954,
          "velocity": 0.6299212598425197,
          "duration": 0.23076875000000996
        },
        {
          "name": "A2",
          "midi": 45,
          "time": 128.30742499999954,
          "velocity": 0.5433070866141733,
          "duration": 0.4615375000000199
        },
        {
          "name": "B5",
          "midi": 83,
          "time": 128.53819374999955,
          "velocity": 0.6220472440944882,
          "duration": 0.23076875000000996
        },
        {
          "name": "C#6",
          "midi": 85,
          "time": 128.76896249999956,
          "velocity": 0.6535433070866141,
          "duration": 0.23076875000000996
        },
        {
          "name": "E3",
          "midi": 52,
          "time": 128.76896249999956,
          "velocity": 0.6377952755905512,
          "duration": 0.4615375000000199
        },
        {
          "name": "D6",
          "midi": 86,
          "time": 128.99973124999957,
          "velocity": 0.6377952755905512,
          "duration": 0.23076875000000996
        },
        {
          "name": "E6",
          "midi": 88,
          "time": 129.23049999999958,
          "velocity": 0.6614173228346457,
          "duration": 0.23076875000000996
        },
        {
          "name": "C#4",
          "midi": 61,
          "time": 129.23049999999958,
          "velocity": 0.7244094488188977,
          "duration": 0.4615375000000199
        },
        {
          "name": "C#6",
          "midi": 85,
          "time": 129.4612687499996,
          "velocity": 0.5354330708661418,
          "duration": 0.23076875000000996
        },
        {
          "name": "B5",
          "midi": 83,
          "time": 129.6920374999996,
          "velocity": 0.5984251968503937,
          "duration": 0.23076875000000996
        },
        {
          "name": "A2",
          "midi": 45,
          "time": 129.6920374999996,
          "velocity": 0.5118110236220472,
          "duration": 0.4615375000000199
        },
        {
          "name": "A5",
          "midi": 81,
          "time": 129.9228062499996,
          "velocity": 0.5590551181102362,
          "duration": 0.23076875000000996
        },
        {
          "name": "G#5",
          "midi": 80,
          "time": 130.15357499999962,
          "velocity": 0.5511811023622047,
          "duration": 0.4615374999999915
        },
        {
          "name": "E2",
          "midi": 40,
          "time": 130.15357499999962,
          "velocity": 0.5511811023622047,
          "duration": 0.4615374999999915
        },
        {
          "name": "D5",
          "midi": 74,
          "time": 130.6151124999996,
          "velocity": 0.5433070866141733,
          "duration": 0.4615374999999915
        },
        {
          "name": "B2",
          "midi": 47,
          "time": 130.6151124999996,
          "velocity": 0.6456692913385826,
          "duration": 0.4615374999999915
        },
        {
          "name": "G#4",
          "midi": 68,
          "time": 131.0766499999996,
          "velocity": 0.48031496062992124,
          "duration": 0.4615374999999915
        },
        {
          "name": "G#3",
          "midi": 56,
          "time": 131.0766499999996,
          "velocity": 0.6929133858267716,
          "duration": 0.923074999999983
        },
        {
          "name": "E4",
          "midi": 64,
          "time": 131.5381874999996,
          "velocity": 0.5196850393700787,
          "duration": 0.4615374999999915
        },
        {
          "name": "A5",
          "midi": 81,
          "time": 131.9997249999996,
          "velocity": 0.7716535433070866,
          "duration": 0.4615374999999915
        },
        {
          "name": "F#3",
          "midi": 54,
          "time": 131.9997249999996,
          "velocity": 0.6850393700787402,
          "duration": 1.846149999999966
        },
        {
          "name": "C#4",
          "midi": 61,
          "time": 131.9997249999996,
          "velocity": 0.6850393700787402,
          "duration": 1.846149999999966
        },
        {
          "name": "G#5",
          "midi": 80,
          "time": 132.46126249999958,
          "velocity": 0.6220472440944882,
          "duration": 0.4615374999999915
        },
        {
          "name": "A5",
          "midi": 81,
          "time": 132.92279999999957,
          "velocity": 0.6062992125984252,
          "duration": 0.4615374999999915
        },
        {
          "name": "G#5",
          "midi": 80,
          "time": 133.38433749999956,
          "velocity": 0.5590551181102362,
          "duration": 0.4615374999999915
        },
        {
          "name": "C#5",
          "midi": 73,
          "time": 133.84587499999955,
          "velocity": 0.6062992125984252,
          "duration": 0.4615374999999915
        },
        {
          "name": "G#5",
          "midi": 80,
          "time": 133.84587499999955,
          "velocity": 0.6062992125984252,
          "duration": 0.4615374999999915
        },
        {
          "name": "F#3",
          "midi": 54,
          "time": 133.84587499999955,
          "velocity": 0.5590551181102362,
          "duration": 0.4615374999999915
        },
        {
          "name": "E5",
          "midi": 76,
          "time": 134.30741249999954,
          "velocity": 0.5196850393700787,
          "duration": 0.4615374999999915
        },
        {
          "name": "D4",
          "midi": 62,
          "time": 134.30741249999954,
          "velocity": 0.7322834645669292,
          "duration": 0.4615374999999915
        },
        {
          "name": "A5",
          "midi": 81,
          "time": 134.76894999999953,
          "velocity": 0.6929133858267716,
          "duration": 0.4615374999999915
        },
        {
          "name": "F#4",
          "midi": 66,
          "time": 134.76894999999953,
          "velocity": 0.7007874015748031,
          "duration": 0.4615374999999915
        },
        {
          "name": "D5",
          "midi": 74,
          "time": 135.23048749999953,
          "velocity": 0.5039370078740157,
          "duration": 0.4615374999999915
        },
        {
          "name": "F#3",
          "midi": 54,
          "time": 135.23048749999953,
          "velocity": 0.5433070866141733,
          "duration": 0.4615374999999915
        },
        {
          "name": "C#5",
          "midi": 73,
          "time": 135.69202499999952,
          "velocity": 0.5669291338582677,
          "duration": 0.4615374999999915
        },
        {
          "name": "E3",
          "midi": 52,
          "time": 135.69202499999952,
          "velocity": 0.5826771653543307,
          "duration": 0.4615374999999915
        },
        {
          "name": "D5",
          "midi": 74,
          "time": 136.1535624999995,
          "velocity": 0.6299212598425197,
          "duration": 0.4615374999999915
        },
        {
          "name": "C#4",
          "midi": 61,
          "time": 136.1535624999995,
          "velocity": 0.7716535433070866,
          "duration": 0.4615374999999915
        },
        {
          "name": "E5",
          "midi": 76,
          "time": 136.6150999999995,
          "velocity": 0.6692913385826772,
          "duration": 0.4615374999999915
        },
        {
          "name": "A4",
          "midi": 69,
          "time": 136.6150999999995,
          "velocity": 0.7559055118110236,
          "duration": 0.4615374999999915
        },
        {
          "name": "C#5",
          "midi": 73,
          "time": 137.0766374999995,
          "velocity": 0.5905511811023622,
          "duration": 0.4615374999999915
        },
        {
          "name": "B4",
          "midi": 71,
          "time": 137.53817499999948,
          "velocity": 0.5590551181102362,
          "duration": 0.9230750000000114
        },
        {
          "name": "E4",
          "midi": 64,
          "time": 137.53817499999948,
          "velocity": 0.5511811023622047,
          "duration": 1.8461499999999944
        },
        {
          "name": "G#4",
          "midi": 68,
          "time": 137.53817499999948,
          "velocity": 0.5511811023622047,
          "duration": 1.8461499999999944
        },
        {
          "name": "A4",
          "midi": 69,
          "time": 138.4612499999995,
          "velocity": 0.5590551181102362,
          "duration": 0.4615374999999915
        },
        {
          "name": "G#4",
          "midi": 68,
          "time": 138.9227874999995,
          "velocity": 0.5590551181102362,
          "duration": 0.4615374999999915
        },
        {
          "name": "C#4",
          "midi": 61,
          "time": 139.38432499999948,
          "velocity": 0.6456692913385826,
          "duration": 0.923074999999983
        },
        {
          "name": "E4",
          "midi": 64,
          "time": 139.38432499999948,
          "velocity": 0.6456692913385826,
          "duration": 0.923074999999983
        },
        {
          "name": "A4",
          "midi": 69,
          "time": 139.38432499999948,
          "velocity": 0.6456692913385826,
          "duration": 0.923074999999983
        },
        {
          "name": "F#2",
          "midi": 42,
          "time": 139.38432499999948,
          "velocity": 0.49606299212598426,
          "duration": 0.4615374999999915
        },
        {
          "name": "C#3",
          "midi": 49,
          "time": 139.84586249999947,
          "velocity": 0.6299212598425197,
          "duration": 1.384612500000003
        },
        {
          "name": "E4",
          "midi": 64,
          "time": 140.30739999999946,
          "velocity": 0.5511811023622047,
          "duration": 0.4615374999999915
        },
        {
          "name": "A4",
          "midi": 69,
          "time": 140.76893749999945,
          "velocity": 0.6929133858267716,
          "duration": 0.23076875000000996
        },
        {
          "name": "B4",
          "midi": 71,
          "time": 140.99970624999946,
          "velocity": 0.6456692913385826,
          "duration": 0.23076875000000996
        },
        {
          "name": "C#5",
          "midi": 73,
          "time": 141.23047499999947,
          "velocity": 0.6299212598425197,
          "duration": 0.4615374999999915
        },
        {
          "name": "D3",
          "midi": 50,
          "time": 141.23047499999947,
          "velocity": 0.6141732283464567,
          "duration": 0.4615374999999915
        },
        {
          "name": "E4",
          "midi": 64,
          "time": 141.69201249999946,
          "velocity": 0.48031496062992124,
          "duration": 0.4615374999999915
        },
        {
          "name": "A3",
          "midi": 57,
          "time": 141.69201249999946,
          "velocity": 0.6692913385826772,
          "duration": 0.4615374999999915
        },
        {
          "name": "A4",
          "midi": 69,
          "time": 142.15354999999946,
          "velocity": 0.6771653543307087,
          "duration": 0.4615374999999915
        },
        {
          "name": "F#4",
          "midi": 66,
          "time": 142.15354999999946,
          "velocity": 0.7322834645669292,
          "duration": 0.9230750000000114
        },
        {
          "name": "C#5",
          "midi": 73,
          "time": 142.61508749999945,
          "velocity": 0.6850393700787402,
          "duration": 0.23076875000000996
        },
        {
          "name": "D5",
          "midi": 74,
          "time": 142.84585624999946,
          "velocity": 0.6062992125984252,
          "duration": 0.23076875000000996
        },
        {
          "name": "A5",
          "midi": 81,
          "time": 143.07662499999947,
          "velocity": 0.7165354330708661,
          "duration": 0.4615374999999915
        },
        {
          "name": "F#3",
          "midi": 54,
          "time": 143.07662499999947,
          "velocity": 0.5511811023622047,
          "duration": 0.4615374999999915
        },
        {
          "name": "G#5",
          "midi": 80,
          "time": 143.53816249999946,
          "velocity": 0.5748031496062992,
          "duration": 0.4615374999999915
        },
        {
          "name": "C#4",
          "midi": 61,
          "time": 143.53816249999946,
          "velocity": 0.7007874015748031,
          "duration": 0.4615374999999915
        },
        {
          "name": "A5",
          "midi": 81,
          "time": 143.99969999999945,
          "velocity": 0.6377952755905512,
          "duration": 0.4615374999999915
        },
        {
          "name": "F#4",
          "midi": 66,
          "time": 143.99969999999945,
          "velocity": 0.7165354330708661,
          "duration": 0.923074999999983
        },
        {
          "name": "G#5",
          "midi": 80,
          "time": 144.46123749999944,
          "velocity": 0.5433070866141733,
          "duration": 0.4615374999999915
        },
        {
          "name": "C#5",
          "midi": 73,
          "time": 144.92277499999943,
          "velocity": 0.6377952755905512,
          "duration": 0.4615374999999915
        },
        {
          "name": "E5",
          "midi": 76,
          "time": 144.92277499999943,
          "velocity": 0.6377952755905512,
          "duration": 0.4615374999999915
        },
        {
          "name": "A5",
          "midi": 81,
          "time": 144.92277499999943,
          "velocity": 0.6377952755905512,
          "duration": 0.4615374999999915
        },
        {
          "name": "D3",
          "midi": 50,
          "time": 144.92277499999943,
          "velocity": 0.5590551181102362,
          "duration": 0.4615374999999915
        },
        {
          "name": "E5",
          "midi": 76,
          "time": 145.38431249999942,
          "velocity": 0.5039370078740157,
          "duration": 0.4615374999999915
        },
        {
          "name": "A3",
          "midi": 57,
          "time": 145.38431249999942,
          "velocity": 0.6062992125984252,
          "duration": 0.4615374999999915
        },
        {
          "name": "A5",
          "midi": 81,
          "time": 145.84584999999942,
          "velocity": 0.6771653543307087,
          "duration": 0.4615374999999915
        },
        {
          "name": "F#4",
          "midi": 66,
          "time": 145.84584999999942,
          "velocity": 0.6771653543307087,
          "duration": 0.4615374999999915
        },
        {
          "name": "D5",
          "midi": 74,
          "time": 146.3073874999994,
          "velocity": 0.5118110236220472,
          "duration": 0.4615374999999915
        },
        {
          "name": "D3",
          "midi": 50,
          "time": 146.3073874999994,
          "velocity": 0.5354330708661418,
          "duration": 0.4615374999999915
        },
        {
          "name": "C#5",
          "midi": 73,
          "time": 146.7689249999994,
          "velocity": 0.5511811023622047,
          "duration": 0.4615374999999915
        },
        {
          "name": "A2",
          "midi": 45,
          "time": 146.7689249999994,
          "velocity": 0.5433070866141733,
          "duration": 0.4615374999999915
        },
        {
          "name": "D5",
          "midi": 74,
          "time": 147.2304624999994,
          "velocity": 0.5984251968503937,
          "duration": 0.4615374999999915
        },
        {
          "name": "E3",
          "midi": 52,
          "time": 147.2304624999994,
          "velocity": 0.6299212598425197,
          "duration": 0.4615374999999915
        },
        {
          "name": "E5",
          "midi": 76,
          "time": 147.69199999999938,
          "velocity": 0.6299212598425197,
          "duration": 0.4615374999999915
        },
        {
          "name": "C#4",
          "midi": 61,
          "time": 147.69199999999938,
          "velocity": 0.7086614173228346,
          "duration": 0.4615374999999915
        },
        {
          "name": "C#6",
          "midi": 85,
          "time": 148.15353749999937,
          "velocity": 0.7007874015748031,
          "duration": 0.4615374999999915
        },
        {
          "name": "E5",
          "midi": 76,
          "time": 148.61507499999936,
          "velocity": 0.5905511811023622,
          "duration": 1.3846124999999745
        },
        {
          "name": "A5",
          "midi": 81,
          "time": 148.61507499999936,
          "velocity": 0.5905511811023622,
          "duration": 1.3846124999999745
        },
        {
          "name": "E3",
          "midi": 52,
          "time": 148.61507499999936,
          "velocity": 0.5275590551181102,
          "duration": 0.4615374999999915
        },
        {
          "name": "B3",
          "midi": 59,
          "time": 149.07661249999936,
          "velocity": 0.6692913385826772,
          "duration": 0.4615374999999915
        },
        {
          "name": "A4",
          "midi": 69,
          "time": 149.53814999999935,
          "velocity": 0.7007874015748031,
          "duration": 0.4615374999999915
        },
        {
          "name": "A4",
          "midi": 69,
          "time": 149.99968749999934,
          "velocity": 0.41732283464566927,
          "duration": 0.23076875000000996
        },
        {
          "name": "G#4",
          "midi": 68,
          "time": 150.23045624999935,
          "velocity": 0.5354330708661418,
          "duration": 0.23076875000000996
        },
        {
          "name": "E4",
          "midi": 64,
          "time": 150.46122499999936,
          "velocity": 0.6377952755905512,
          "duration": 1.3846124999999745
        },
        {
          "name": "A4",
          "midi": 69,
          "time": 150.46122499999936,
          "velocity": 0.6377952755905512,
          "duration": 1.3846124999999745
        },
        {
          "name": "F#2",
          "midi": 42,
          "time": 150.46122499999936,
          "velocity": 0.5433070866141733,
          "duration": 0.4615374999999915
        },
        {
          "name": "C#3",
          "midi": 49,
          "time": 150.92276249999935,
          "velocity": 0.6771653543307087,
          "duration": 0.4615374999999915
        },
        {
          "name": "F#3",
          "midi": 54,
          "time": 151.38429999999934,
          "velocity": 0.6377952755905512,
          "duration": 0.9230750000000114
        },
        {
          "name": "A4",
          "midi": 69,
          "time": 151.84583749999933,
          "velocity": 0.6141732283464567,
          "duration": 0.23076875000000996
        },
        {
          "name": "B4",
          "midi": 71,
          "time": 152.07660624999934,
          "velocity": 0.6377952755905512,
          "duration": 0.23076875000000996
        },
        {
          "name": "C#5",
          "midi": 73,
          "time": 152.30737499999935,
          "velocity": 0.6535433070866141,
          "duration": 0.4615374999999915
        },
        {
          "name": "D3",
          "midi": 50,
          "time": 152.30737499999935,
          "velocity": 0.5590551181102362,
          "duration": 0.4615374999999915
        },
        {
          "name": "E4",
          "midi": 64,
          "time": 152.76891249999935,
          "velocity": 0.4645669291338583,
          "duration": 0.4615374999999915
        },
        {
          "name": "A3",
          "midi": 57,
          "time": 152.76891249999935,
          "velocity": 0.6771653543307087,
          "duration": 0.4615374999999915
        },
        {
          "name": "A4",
          "midi": 69,
          "time": 153.23044999999934,
          "velocity": 0.6850393700787402,
          "duration": 0.4615374999999915
        },
        {
          "name": "D4",
          "midi": 62,
          "time": 153.23044999999934,
          "velocity": 0.6771653543307087,
          "duration": 0.9230750000000114
        },
        {
          "name": "C#5",
          "midi": 73,
          "time": 153.69198749999933,
          "velocity": 0.6929133858267716,
          "duration": 0.23076875000000996
        },
        {
          "name": "D5",
          "midi": 74,
          "time": 153.92275624999934,
          "velocity": 0.6456692913385826,
          "duration": 0.23076875000000996
        },
        {
          "name": "E5",
          "midi": 76,
          "time": 154.15352499999935,
          "velocity": 0.6299212598425197,
          "duration": 0.4615374999999915
        },
        {
          "name": "A2",
          "midi": 45,
          "time": 154.15352499999935,
          "velocity": 0.5590551181102362,
          "duration": 0.4615374999999915
        },
        {
          "name": "E4",
          "midi": 64,
          "time": 154.61506249999934,
          "velocity": 0.44881889763779526,
          "duration": 0.4615374999999915
        },
        {
          "name": "E3",
          "midi": 52,
          "time": 154.61506249999934,
          "velocity": 0.6692913385826772,
          "duration": 0.4615374999999915
        },
        {
          "name": "A4",
          "midi": 69,
          "time": 155.07659999999933,
          "velocity": 0.6850393700787402,
          "duration": 0.4615374999999915
        },
        {
          "name": "F#3",
          "midi": 54,
          "time": 155.07659999999933,
          "velocity": 0.6456692913385826,
          "duration": 0.9230750000000114
        },
        {
          "name": "D5",
          "midi": 74,
          "time": 155.53813749999932,
          "velocity": 0.7007874015748031,
          "duration": 0.23076875000000996
        },
        {
          "name": "C#5",
          "midi": 73,
          "time": 155.76890624999933,
          "velocity": 0.6062992125984252,
          "duration": 0.23076875000000996
        },
        {
          "name": "B4",
          "midi": 71,
          "time": 155.99967499999934,
          "velocity": 0.5748031496062992,
          "duration": 0.923074999999983
        },
        {
          "name": "E2",
          "midi": 40,
          "time": 155.99967499999934,
          "velocity": 0.5354330708661418,
          "duration": 0.4615374999999915
        },
        {
          "name": "C#3",
          "midi": 49,
          "time": 156.46121249999933,
          "velocity": 0.6299212598425197,
          "duration": 0.4615374999999915
        },
        {
          "name": "E4",
          "midi": 64,
          "time": 156.92274999999933,
          "velocity": 0.47244094488188976,
          "duration": 0.9230750000000114
        },
        {
          "name": "G#3",
          "midi": 56,
          "time": 156.92274999999933,
          "velocity": 0.6692913385826772,
          "duration": 0.9230750000000114
        },
        {
          "name": "A4",
          "midi": 69,
          "time": 157.84582499999934,
          "velocity": 0.6377952755905512,
          "duration": 0.4615374999999915
        },
        {
          "name": "F#2",
          "midi": 42,
          "time": 157.84582499999934,
          "velocity": 0.5118110236220472,
          "duration": 0.4615374999999915
        },
        {
          "name": "A3",
          "midi": 57,
          "time": 158.30736249999933,
          "velocity": 0.5511811023622047,
          "duration": 0.4615374999999915
        },
        {
          "name": "C#3",
          "midi": 49,
          "time": 158.30736249999933,
          "velocity": 0.6220472440944882,
          "duration": 0.4615374999999915
        },
        {
          "name": "C#4",
          "midi": 61,
          "time": 158.76889999999932,
          "velocity": 0.6850393700787402,
          "duration": 0.4615374999999915
        },
        {
          "name": "F#3",
          "midi": 54,
          "time": 158.76889999999932,
          "velocity": 0.6377952755905512,
          "duration": 1.8461499999999944
        },
        {
          "name": "F#4",
          "midi": 66,
          "time": 159.2304374999993,
          "velocity": 0.7165354330708661,
          "duration": 0.4615374999999915
        },
        {
          "name": "A4",
          "midi": 69,
          "time": 159.6919749999993,
          "velocity": 0.6377952755905512,
          "duration": 1.8461500000000228
        }
      ],
      "controlChanges": {
        "32": [
          {
            "number": 32,
            "time": 0,
            "value": 0
          }
        ]
      },
      "id": 1,
      "name": "Piano",
      "instrumentNumber": 0,
      "instrument": "acoustic grand piano",
      "instrumentFamily": "piano",
      "channelNumber": 0,
      "isPercussion": false
    }
  ]
}
